<svg xmlns="http://www.w3.org/2000/svg" viewBox="0 0 1500 1500"><g fill="none" stroke-width="2"><path stroke="#1d1d1d" d="M1059.5 110.2c1.11 1.52 2.14 2.88 3.95 3.6q1.76.7 4.17 2c4.56 2.44 9.8 4.34 14.37 6.81 5.72 3.11 11.02 6.46 17.5 7.96q2.5.58 2.8-1.83" vector-effect="non-scaling-stroke"/><path stroke="#0e0509" d="M1166.65 482.51q.51-1.5-.48-2.31-.4-.32-.9-.19-2.2.61-2.73 2.87-.95 4.01-3.3 7.53c-1.95 2.92-3.4 6.9-3.69 10.34q-.47 5.69-1.09 11.74-.32 3.02-4.95 11.58-2.92 5.38-8.33 3.8-3.14-.92-6.09-4.69" vector-effect="non-scaling-stroke"/><path stroke="#0d445a" d="M1135.09 523.18q1.61-8.74 3.19-12.68 14.11-35.1 22.42-78.26 2.33-12.11.52-21.24-.76-3.85-4.29-15.51" vector-effect="non-scaling-stroke"/><path stroke="#0e0509" d="m1156.93 395.49.18-.51a.66.65-69.4 0 1 .85-.39q.48.18.87-.08.32-.21.43-.58.98-3.36 2-6.66 2.14-6.95 2.43-13.42" vector-effect="non-scaling-stroke"/><path stroke="#0b0a0a" d="M1163.69 373.85c.13-2.12.4-4.15.32-6.18q-.49-11.57 1.24-22.09c1.68-10.23 1.8-19.6 1.74-29.57-.06-8.74 1.06-17.35 1.66-26 .52-7.41 2.29-14.52 2.58-21.71.21-5.26 1.32-10.26 1.65-15.43q1.12-17.99.67-36.68c-.08-3.21-2.62-5.9-4.31-8.28q-.98-1.38-2.89-4.43-5.61-8.99-13.39-15.26-10.03-8.08-16.12-14.35c-6.34-6.51-11.64-12.72-20.21-16.72q-18.68-8.72-40.1-20.1c-13.02-6.91-26.77-13.21-40.09-18.97q-1.61-.7-6.21-1.79-3.19-.75-6.47-1.03-9.77-.83-19.28-4.21c-5.21-1.85-10.86-3.02-16.32-4.31-2.76-.66-4.89-2.55-7.72-3.28-2.69-.69-4.88-1.34-7.29-2.84q-6.55-4.07-12.44-4.63-9.15-.88-17.44-1.84-2.4-.28-4.59.57-.46.19-.44.69.09 2.13-.64 2.37" vector-effect="non-scaling-stroke"/><path stroke="#333" d="M937.6 97.78q-18.15-5.26-23.1-6.34-45.89-10.04-92.49-16.02-42-5.38-84.26-7.94-25.95-1.58-50.28 1.6" vector-effect="non-scaling-stroke"/><path stroke="#707070" d="M687.47 69.08q-22.95-.43-42.21.51-44.68 2.18-90.26 9.96-30.34 5.18-60.89 13.44c-19.83 5.36-39.41 13.26-57.07 23.02q-14.01 7.74-23.45 17.06c-6.9 6.82-9.9 13.86-10.87 24.09q-.82 8.73-1.94 19.57-1.1 10.64-2.18 19.53-3.17 25.94-6.58 52.61" vector-effect="non-scaling-stroke"/><path stroke="#0e0509" d="M392.02 248.87q-1.87-4.08-1.13-7.64c.49-2.34 1.49-4.96.36-7.27q-2.18-4.43-1.54-8.88c.59-4.05-.34-8.46-3.8-11.04a1.46 1.46 0 0 0-1.97.19q-1.24 1.38-1.67 3.53-2 9.9-3.7 18.81-.02.11-1.3 5.82-1.01 4.48-1.12 9.11-.12 5.56.17 11.11.11 2.08.3 4.11" vector-effect="non-scaling-stroke"/><path stroke="#0d445a" d="M376.62 266.72q-10.76 2.4-21.12 5.05-19.31 4.96-35.93 14.98-19.96 12.04-40.96 31.64-27.21 25.39-39.67 63.25-6.43 19.53-8.64 43.58c-.57 6.16-.31 12.3.51 18.51q2.58 19.35 7.38 36.87 9.59 34.99 24.52 68.03" vector-effect="non-scaling-stroke"/><path stroke="#0e0509" d="M262.71 548.63q-2.53 4.39-8.72 4.76l-11.3.68c-2.12.13-4.7.61-6.44 1.59q-4.72 2.64.54 3.93 3.94.96 8.68 1.23 2.7.15 3.42 2.41.47 1.47-1.47 2.5" vector-effect="non-scaling-stroke"/><path stroke="#707070" d="M247.42 565.73q-23.6 1.74-47.35 2.35c-8.51.22-16.33 1.3-24.24 2.96q-16.69 3.5-33.97 9.26c-16.52 5.51-34.59 15.24-35.54 34.89q-.2 4.08 1.06 7.08 4.3 10.23 12.91 20.88" vector-effect="non-scaling-stroke"/><path stroke="#272727" d="M120.29 643.15q45.84 33.41 100.5 51.08 7.7 2.48 15.47 4.91c2.15.67 3.41.05 4.46-1.79" vector-effect="non-scaling-stroke"/><path stroke="#0b0a0a" d="M240.72 697.35q.91-.08 1.16.52.18.44.63.56.99.28 1.94.45 1.05.18.93 1.22" vector-effect="non-scaling-stroke"/><path stroke="#22576d" d="M245.38 700.1q-.92 2.71-.87 5.65.03 1.5 2.5 2.54" vector-effect="non-scaling-stroke"/><path stroke="#13050d" d="m247.01 708.29-9.27 7.9" vector-effect="non-scaling-stroke"/><path stroke="#1f4966" d="M524.23 897.82q-6.99 5.85-14.1 11.29c-10.44 7.99-23.87 13.15-36.39 16.45q-20.38 5.37-37.1 8.36-17.84 3.19-37.31 2.49-21.27-.76-43.16-2.14c-6.44-.4-13.21-1.25-19.83-1.79q-4.86-.4-14.62-1.67-7.8-1.02-16.48-1.25m-26.07-7.37q-15.05-7.97-32.12-11.75-1.16-.26-1.55.14-.51.52-.26 1.94" vector-effect="non-scaling-stroke"/><path stroke="#13050d" d="M245.24 912.52q-5.89-2.05-8.74-1.45-2.55.54-6.04.85" vector-effect="non-scaling-stroke"/><path stroke="#1b4963" d="M1156.93 395.49q-1.05-2.52-1.23-3.23-2.66-10.58-5.97-21.5c-7.16-23.68-22.77-44.25-40.42-61.39-10.65-10.34-21.15-19.99-33.71-27.72q-7.53-4.63-17.46-8.47-20.49-7.92-40.6-11.65-15.57-2.88-32.33-4.6c-14.49-1.48-28.14-1.35-42.63 1.14q-26.24 4.51-50.24 15.5-1.14.52-1.33.8" vector-effect="non-scaling-stroke"/><path stroke="#305c76" d="M891.01 274.37q-25.52 17.77-35.92 44.48-14.99 38.48-24.83 86.15-2.34 11.38-2.85 22.8-.75 16.98-.5 34.37c.03 2.05.37 4.29.71 6.33q2.33 14.07 3.63 26.65.17 1.6 1.78 1.51 14.99-.91 30.91.19.88.06.97-.83 1.38-14.59 2.61-28.22c.84-9.39 2.23-20.16 2.99-28.12q2.39-25.12 7.77-43.42 5.46-18.58 9.49-30.52 8.24-24.45 26.47-43.37" vector-effect="non-scaling-stroke"/><path stroke="#1b4963" d="M914.24 322.37c9.39-6.88 19.3-13.12 29.96-17.81 7.43-3.26 15.25-5.25 23.12-6.81q12.65-2.52 23.97-3.75c29.27-3.17 58.98 10.51 74.72 34.76 11.38 17.53 19.22 36.68 22.73 57.15 2.14 12.48 4.83 24.35 2.87 36.85q-1.51 9.55-4.11 22.29-1.49 7.27-3.59 12.69-2.47 6.38-7.97 17.13-6.2 12.14-13.95 34.47-.45 1.32-.15 2.69.12.52.64.59l72.61 10.56" vector-effect="non-scaling-stroke"/><path stroke="#0e0509" d="M1161.97 520.32q-2.98 3.35-3.57 8.17c-.3 2.37.9 3.79 3.08 4.35q11.74 2.99 22.56 8.84 1.45.79 3.55 2.58.1.09.08.22l-.07.34q-.07.4.33.48 2.89.59 5.31 2.19 2.79 1.85-.45 1.01-2.67-.69-5.23 1.46" vector-effect="non-scaling-stroke"/><path stroke="#352c30" d="M1187.56 549.96 1061.4 528.1" vector-effect="non-scaling-stroke"/><path stroke="#41383c" d="M1061.4 528.1q-12.69-1.87-24.4-3.15-12.12-1.32-24.24-2.54-10.15-1.01-19.78-2.37c-18.26-2.56-36.57-4.56-54.94-4.95q-80.24-1.73-159.63-.93c-8.68.08-17.75.58-26.59.81q-10.23.26-19.65.86-20.45 1.31-39.85 2.44-38.26 2.23-93.62 7.87-10.04 1.02-19.86 2.3-77 9.98-131.07 16.77-53.8 6.76-114.03 14.19-17.93 2.21-46.84 4.28-1.27.09-2.76.51-1.45.4-2.77.64" vector-effect="non-scaling-stroke"/><path stroke="#7e7579" d="m281.37 564.83-33.95.9" vector-effect="non-scaling-stroke"/><path stroke="#1b4963" d="M262.71 548.63q11.77.1 16.05.58 28.02 3.17 56.07-.75 1.61-.23 2.91-.9.44-.22.59-.68.76-2.31-.26-4.89-11.24-28.27-19.84-52.64-2.23-6.32-8.48-17.48c-2.73-4.88-5.06-10.27-6.23-15.71q-2.34-10.91-4.19-22.07-2.76-16.7 0-32.37 6.05-34.32 21.07-60.79 10.3-18.14 27.19-28.3c15.14-9.11 32.51-14.32 50.09-12.15 12.49 1.54 26.17 4.61 38.55 8.15q6.29 1.8 11.21 4.19 12.74 6.18 27.61 15.76" vector-effect="non-scaling-stroke"/><path stroke="#305c76" d="M475.05 328.58q17.96 18.8 26.46 43.38 6.83 19.75 11.84 39.17 3.12 12.07 4.41 22.37 2.63 20.95 5.05 44.76 2.02 19.92 1.51 38.29-.08 2.73 1.28 4.66.31.44.85.47 1.23.06 2.45-.1 11.3-1.47 20.83-2.95 6.75-1.05 7.6-7.23 2.45-17.75 4.54-34.89c1.78-14.66 1.15-29.92.2-45.06q-.59-9.42-2.67-19.99-8.12-41.06-24.41-84.26c-6.94-18.41-18.29-33.07-34.82-44.29" vector-effect="non-scaling-stroke"/><path stroke="#1b4963" d="M500.17 282.91q-6.44-5.89-14.91-8.44-15.96-4.8-37.76-9.44-18.03-3.84-39.48-1.46-15.87 1.77-31.4 3.15" vector-effect="non-scaling-stroke"/><path stroke="#707070" d="M568.54 94.17q-45.02 9.36-88.04 29.3-11.77 5.46-17.9 15.85-2.35 3.98-4.56 11.84-1.7 6.05-3.32 12.32" vector-effect="non-scaling-stroke"/><path stroke="#7e7579" d="M438.77 251.2q-22.68-3.68-45.24-1.12-.67.08-.99-.21-.41-.35-.52-1" vector-effect="non-scaling-stroke"/><path stroke="#2e9bc6" d="M914.24 322.37q-14.34-9.39-19.81-24.61-3.64-10.13-3.42-23.39" vector-effect="non-scaling-stroke"/><path stroke="#174e64" d="M1216.41 766.87c-6.82-13.54-11.3-29.24-13.91-44.04-.48-2.73-1.25-5.16-2.92-7.36-3.85-5.06-9.37-10.51-10.75-16.92q-1.39-6.49-2.67-13.62c-1.03-5.75-3.63-11.63-8.88-15.39q-3.33-2.39-6.36-4.66-11.24-8.41-15.62-21.76-.28-.85-.77-1.6" vector-effect="non-scaling-stroke"/><path stroke="#2c6177" d="M1154.53 641.52q-1.2-1.7-4.03-4.28c-12.72-11.62-25.26-19.93-42.75-22.11q-50.57-6.28-101.81-12.26-10.09-1.18-19.82-2.56-29.75-4.23-57.64-7.99-18.91-2.55-33.01-3.24-24.59-1.21-47.75-2.24-10.64-.47-20.38-.72c-41.25-1.07-80.25-2.58-121.83-2.26q-9.62.08-19.99.75-40.4 2.63-81.53 3.88c-31.52.96-63.65 2.39-84.99 2.74q-33.91.56-63.78 7.21" vector-effect="non-scaling-stroke"/><path stroke="#174e64" d="m455.22 598.44-74.18 8.77" vector-effect="non-scaling-stroke"/><path stroke="#2c6177" d="m381.04 607.21-22.3 2.55" vector-effect="non-scaling-stroke"/><path stroke="#174e64" d="M358.74 609.76q-20.05 2.39-39.99 4.96c-7.8 1-12.69 6.51-15.98 13.2a1.41 1.41 0 0 0 1.24 2.03q4.45.07 9-.33 19.63-1.73 38.05-3.27" vector-effect="non-scaling-stroke"/><path stroke="#2c6177" d="m351.06 626.35 10.18-1.5" vector-effect="non-scaling-stroke"/><path stroke="#174e64" d="M361.24 624.85q28.48 2.35 56.51 7.13 12.62 2.15 24.16 5.08 20.21 5.13 41.02 15.72 22.82 11.61 36.8 21.25 5.68 3.92 13.66 12.1" vector-effect="non-scaling-stroke"/><path stroke="#2c6177" d="M533.39 686.13q6.06 9.2 8.72 20.62.55 2.34.54 4.8a.72.72 0 0 1-.69.71q-3.33.15-5.62-2.3-6.64-7.1-14.07-14.86-6.11-6.39-11.58-10.11-26.23-17.86-55.74-28.71c-12.37-4.55-25.66-7.83-38.74-10.29q-22.76-4.28-46.96-6.82-5.85-.62-10.42.19-8.54 1.51-16.31 2.69c-6.54.99-13.59.92-20.36 1.58q-14.61 1.42-26.79 8.73-11.33 6.8-22.74 13.83-19.48 12.01-27.25 33.91" vector-effect="non-scaling-stroke"/><path stroke="#2e9bc6" d="M1154.53 641.52q.22.42-.01.69-.32.37-.74.1-2.04-1.31-4.5-1.39-10.56-.34-12.76 10.12c-1.69 8.03-2.74 15.81-2.47 24.21q.35 10.37-.97 18.81-1.53 9.79-1.52 19.18c.02 20.61-.16 40.39.54 60.53q.48 13.76 1.39 28.02.79 12.22 2.38 23.95 3.23 23.75 6.54 47.49 3.43 24.55 6.46 57.79c1.92 21.05 2.92 42.29 5.28 63.07q.93 8.27 1 18.42.13 19.09-.01 37.76-.14 19.18-3.47 37.97-1.62 9.17-4.39 16.6-4.42 11.84-8.7 23.4c-3.38 9.11-5.57 18.13-7.71 27.44q-1.85 8.04-6.03 12.85-14.26 16.42-25 31.11c-10.32 14.12-20.49 29.58-32.25 42.11q-30.67 32.69-64.69 62.5-13.08 11.45-26.94 20.83-26.2 17.72-52.3 34.37-10.95 6.99-28.57 16.42-24.87 13.31-48.6 24.62-17.21 8.2-36.96 17.8-10.39 5.06-20.64 8.03-8.88 2.57-20.15 4.96-2.31.49-4.43 2.57a.45.44-28.8 0 0-.13.43q.04.15.12.27.26.41-.16.65-.6.33-1.35.36" vector-effect="non-scaling-stroke"/><path stroke="#345b79" d="M762.79 1435.56q-6.32.38-9.29.15-11.16-.86-23.49-1.96-3.19-.29-6.02-.81-2.85-.52-6.02-.66-27.41-1.2-56.22-1.27-3.28-.01-16.27.93" vector-effect="non-scaling-stroke"/><path stroke="#22576d" d="M645.48 1431.94q-10.22.38-19.98-3.19-26.65-9.76-53.94-15.15-15.51-3.07-19.63-4.12c-28.74-7.35-56-17.91-81.7-31.93q-17.48-9.53-34.66-18.95-11-6.04-18.58-12.14c-18.69-15.03-37.77-32.34-53.73-50.14q-4.76-5.31-12.79-15.37c-15.17-19.01-30.06-37.17-46.36-54.7q-1.36-1.47-1.56-3.23a1.03 1.03 0 0 1 1.63-.94q7.42 5.5 14.51 9.49c7.15 4.02 15.79 7.39 23.8 10.76q3.21 1.35 9.64 2.58" vector-effect="non-scaling-stroke"/><path stroke="#2c6177" d="M352.13 1244.91q3.27.66 5.12.76c11.71.62 23.96-.9 35.76-.79q57.11.53 115.24.69 75.31.21 106.5-.9 39.72-1.42 70.24-4.04 24.56-2.11 51.28-4.25 18.11-1.44 48.99-1.27c40.99.24 81.78.05 121.73-.02q23.54-.04 52.86-1.75 16.1-.93 31.38-2.83 37.89-4.71 72.32-18.85 10.9-4.47 16.12-7.84 22.56-14.53 27.67-42.32c1.28-6.93-.11-15.58.78-23.03.85-7.13.27-13.73-4.79-18.95q-6.19-6.38-13.4-12.72-6.53-5.75-16.27-5.98-76.33-1.82-160.16-.26-1.93.03-4.54.12" vector-effect="non-scaling-stroke"/><path stroke="#226182" d="M908.96 1100.68q2.02-4.11 3.47-8.21 1.58-4.45 1.45-8.28-.3-8.87-1.95-20.71c-2.76-19.82-14.79-32.2-33.55-36.78q-8.47-2.06-15.09-2.65c-11.06-.98-21.91 3.36-30.84 10.32-4.55 3.55-6.34 7.53-4.33 13.23 1.16 3.3 4.25 13.32 9.2 6.93q4.24-5.47 11.38-9.08 7.85-3.96 14.51-.39c7.35 3.94 13.93 13.85 6.04 21.24q-4.59 4.29-12.6 5.68-16.68 2.87-31.22-5.96c-13.18-8.01-26.33-16.82-39.44-25.58q-8.46-5.65-15.49-9.17c-11.43-5.72-24.07-11.35-35.68-16.08-17.85-7.28-38.08-7.47-57.94-5.1q-20.31 2.43-38.38 11.45c-12.42 6.2-23.7 12.69-31.8 24.42q-1.2 1.74-2.67.23c-22.77-23.44-53.17-34.8-85.51-36.96q-19.12-1.28-34.82 3.36-15.5 4.58-37.02 13.71c-7.02 2.98-13.95 6.43-20.67 10.22q-14.02 7.91-28.17 15.92c-15.45 8.74-33.2 14.62-49.85 4.36-4.46-2.75-7.51-7.55-5.25-12.8 3.31-7.66 10.86-13.52 19.36-10.91 8.05 2.48 12.13 7.59 17.22 13.92a2 2 0 0 0 2.87.26c2.55-2.21 4.12-6.46 5.15-9.59 1.88-5.75-.35-10.5-4.97-14.06q-9.49-7.33-23.36-10.71c-6.33-1.55-13.02.03-19.39 1.14q-7.11 1.25-10.91 2.67c-9.63 3.6-18.8 11.12-23.08 20.74-3.48 7.84-4.88 16.99-5.57 25.92q-.6 7.79-.85 14.72-.02.3-.23.52-.25.27-.49.19" vector-effect="non-scaling-stroke"/><path stroke="#22576d" d="M298.49 1078.81q-9.59-.54-14.36-1.94-4.27-1.24-5.59-1.43" vector-effect="non-scaling-stroke"/><path stroke="#2e9bc6" d="M278.54 1075.44c.46-1.72.97-3.42 1.06-5.24q1.33-26.79 3.49-56.33c1.12-15.32-.62-31.13-.25-44.95q.36-13.39.85-27.23.21-6-.99-9.44-1.7-4.85-3.53-10.06" vector-effect="non-scaling-stroke"/><path stroke="#345b79" d="M279.17 922.19q4.52 1.72 8.86 3.18 3.51 1.17 8.57 2.2 4.83.99 8.64 1.99" vector-effect="non-scaling-stroke"/><path stroke="#2e9bc6" d="M305.24 929.56q10.27 9.3 24.01 11.18 9.26 1.26 18.79 3.53c9.32 2.22 18.69 4.07 27.78 4.23q19.91.35 49.69 1.18 20.44.56 40.51-2.79 5.03-.84 10.51-1.51 7.03-.87 10.47-1.73 16.12-4.05 27.15-16.37c3.6-4.01 6.28-8.68 9.02-13.33 3.37-5.72 4.6-10.12 1.06-16.13" vector-effect="non-scaling-stroke"/><path stroke="#345b79" d="M524.23 897.82q4.92-4.33 11.29-10.8 5.92-6.01 10.06-11.94 3.26-4.69 7.47-13.64 4.86-10.32 9.47-19.9c2.59-5.37 4.98-11.57 5.49-17.07q1.73-18.75-3.3-38.48c-2.5-9.83-9.38-17.68-16.01-25.38q-9.84-11.44-19.03-19.02-6.54-5.39-19.15-14.82" vector-effect="non-scaling-stroke"/><path stroke="#2e9bc6" d="M510.52 726.77q-.72-3.3-3.26-6.01c-6.14-6.54-11.91-13.02-18.37-17.41q-14.52-9.88-29.03-18.64c-17.03-10.29-37.51-17.55-57.53-23.36-7.21-2.09-14.36-.81-20.84-2.02-4.34-.81-7.44-2.8-12.28-1.74q-40.47 8.91-76.06 20.75-15.07 5-25.35 11.45-7.04 4.42-7.21 13.62" vector-effect="non-scaling-stroke"/><path stroke="#345b79" d="M260.59 703.41q-6.66 3.96-13.58 4.88" vector-effect="non-scaling-stroke"/><path stroke="#2e9bc6" d="M533.39 686.13q1.3-3.52.21-8.5-1.94-8.94-5.07-14.55-3.02-5.45-8.56-12.94-14.83-20.07-29.41-34.37c-8.15-7.99-17.57-12.27-28.53-15.16q-2.86-.76-6.1-.52a1.26 1.24-26.4 0 1-.88-.29q-.93-.75.17-1.36" vector-effect="non-scaling-stroke"/><path stroke="#323131" d="M1310.09 585.55q19.94 12.02 40.21 22.99 7.53 4.07 12.88 9.28 4.9 4.77 12.76 13.48m4.54 11.69c-1.21 5.77-2.32 12-4.68 17.13-6.8 14.83-18.86 23.99-31.3 33.72-6.06 4.74-10.61 6.03-17.93 5.39-7.17-.62-13.25-2.19-19.92-5.33-11.09-5.23-22.35-8.84-34.53-12.61q-3.79-1.17-4.29-5.1l-.05-.42q-.51-4 3.4-3.04 11.35 2.79 17.46 5.23 19.96 7.98 41.8 16.07 3.29 1.22 6.23-.9a1.74 1.74 0 0 0 .58-2.11q-.48-1.09-1.56-1.7-9.26-5.17-18.81-9.25-23.35-10-43.93-17.83-8.37-3.19-11.71-12.11a1.07 1.06-2.1 0 1 1.3-1.39q44.32 13 84.53 36.39a1.52 1.51-64.4 0 0 2.18-.77c1.63-4.25-1.62-9.08-5.23-11.15q-43.53-24.99-92.51-35.75c-3.96-.87-5.76-2.92-6.98-6.94q-1.03-3.43-2.52-7.36a.9.9 0 0 1 .8-1.22c7.85-.41 14.98.28 21.42 3.73 4.64 2.49 9.4 4.91 14.18 6.8 14.52 5.78 27.74 11.33 42.36 19.15 5.79 3.09 11.29 6.86 17.21 10.09q1.47.81 3.07.04.5-.24.63-.78.45-1.91-1.01-3.23-7.86-7.1-16.24-13.53-4.04-3.1-8.18-5.22c-12.6-6.42-25.74-12.49-39.23-17.02q-22.1-7.42-38.83-12.73-7.15-2.27-14.95-4.06-20.6-4.73-41.26-9.64-10.96-2.6-20.76-4.18-18.15-2.94-37.3-5.38-10.19-1.3-19.8-2.81-52.38-8.18-112.88-17.86-26.53-4.24-48.25-6.02-44.31-3.64-90.98-4.23-51.26-.65-99.51-.68-10.27-.01-20 .25-22.51.6-30.25 1.12-48.14 3.21-90.52 6-6.74.44-19.98 1.07-22.89 1.08-45.73 3.44-17.86 1.84-35.28 3.62-32.41 3.29-77.28 7-9.64.79-19.89 2.12c-16.39 2.13-33.06 4.34-49.55 5.57q-19.18 1.43-38.79 2.63c-6.85.42-13.55 1.11-20.34 1.48q-25.84 1.42-41.68 2.95-28.33 2.75-58.11 8.06c-16.74 2.99-33.86 6.21-49.96 11.17q-5.38 1.65-9.08 6.11c-1.96 2.36-2.29 5.7-2.32 8.72q-.08 8.46.1 16.49.14 6.76 4.4 10.31c6.92 5.77 16.97 10.31 25.47 13.52q24.35 9.19 50.68 14.23c5.93 1.13 12.09 1.88 17.85 3.42a2.41 2.4 15.8 0 1 1.69 3.01l-3.21 10.68" vector-effect="non-scaling-stroke"/><path stroke="#979797" d="M120.29 643.15q.07-4.51-1.27-8.93c-1.36-4.5-2.27-7.86-2.46-12.02-.58-12.42 10.16-21.25 21.23-25.43q7.82-2.95 18.27-5.6 33.73-8.55 65.75-12.15 23.09-2.6 44.88-6.43c5.55-.98 11.19-1.21 16.88-2.16" vector-effect="non-scaling-stroke"/><path stroke="#323131" d="M928.61 541.99q.34 1.98 2.4 2.42 13.2 2.86 28.46 3.75c6.49.38 12.73 1.76 19.11 2.48q2.66.3 5.37.97c4.48 1.12 9.08 1.55 13.63 2.43q63.18 12.25 128.32 23.71c34.07 6 64.98 12.83 100.05 20.79q36.2 8.22 74.6 23.68 11.83 4.77 18.73 8.47 10.8 5.8 21.2 14.64a1.22 1.22 0 0 0 2.01-.98c-.18-4.43-3.61-8.24-7-11.17-7.69-6.65-17.53-12.13-26.96-16.66q-7.09-3.4-14.58-6.1c-54.63-19.67-109.49-32.1-168.71-41.42q-47.49-7.48-95.86-14.23-5.71-.8-11.18-2.16-5.58-1.38-11.08-2.78" vector-effect="non-scaling-stroke"/><path stroke="#2e9bc6" d="M500.17 282.91q-.74 6.29-1.74 12.07-3 17.54-16.05 29.09-1.51 1.33-3.54 2.46-1.92 1.06-3.79 2.05" vector-effect="non-scaling-stroke"/><path stroke="#190f13" d="M1163.69 373.85q-3.96.02-5.39-4.13-3.8-11.08-7.95-22.06-.21-.55-.21-1.33 0-.82-.23-1.36" vector-effect="non-scaling-stroke"/><path stroke="#323131" d="M1149.91 344.97q2.28-.97 1.3-4.98-.71-2.91-3.2-6.38-5.14-7.18-9.73-14.79-12.62-20.91-31.04-36.54-6.61-5.61-14.28-11.3c-2.16-1.61-5.45-4.96-4.73-7.89q.15-.61.75-.41 2.81.92 5.5 2.47 7.14 4.14 12.18 8.7 10.81 9.75 22.31 21.3 13.37 13.43 21.47 28.21.84 1.54 2.25 2.86 1.43 1.34 1.19-.61c-.89-7.25-1.53-14.68-5.1-21.23q-9.19-16.88-23.66-31.19c-7.07-6.99-15.4-12.77-23.26-18.99q-14.15-11.2-27.47-24.08-1.41-1.37.33-2.27.41-.21.89-.18 2.49.15 4.36 1.51c11.87 8.68 24.32 17.11 35.52 26.24q17.97 14.65 34.74 34.53 2.61 3.09 2.6-.96-.01-3.91-2.42-7.4-8.23-11.96-19-25.1-7.44-9.07-13.72-14.12c-5.61-4.51-9.74-10.42-15.69-14.57-10.01-7.01-18.55-15.49-27.01-24.35q-.65-.68-.08-1.43 1.65-2.17 3.85-.74 9.52 6.16 17.8 12.9c5.39 4.39 11.56 7.88 16.97 12.03q24.16 18.54 42.01 43.87a.62.62 0 0 0 1.11-.2c.85-3.27.41-7.25-1.27-10.28-6.34-11.37-14.57-21.07-25.27-29.99q-7.15-5.96-14.83-13.58c-10.15-10.08-22.81-17.63-33.87-25.76q-11.18-8.22-22.76-16.01c-3.16-2.12-6.88-5.56-6.06-9.82a1.24 1.23-63 0 1 2.06-.67c2.77 2.62 5.54 5.8 9.37 6.96 2.46.75 4.63 1.66 6.89 2.97q27.7 16.06 51.44 35.99 19.08 16.01 32.75 34.21.81 1.07 2.09 1.27.62.1.54-.52-.93-7.4-4.58-11.92c-4.8-5.95-9.6-11.86-14.65-17.32q-5.03-5.43-9.61-10.54-7.77-8.68-22.39-18.61-13.68-9.3-26.43-18.21c-6.02-4.22-12.46-7.46-18.24-12.02q-1.43-1.13-3.14-1.95c-3.63-1.75-6.55-3.64-8.28-7.44a1.1 1.09 72.7 0 1 .8-1.53q2.62-.47 4.76.18c3.02.91 4.67 4.16 7.47 5.39q9.08 3.99 16.26 8.34 12.71 7.71 28.92 18.02c12.29 7.81 23.69 17.94 32.8 27.85q5.13 5.59 12.33 16.89c1.52 2.37 2.67 4.85 3.5 7.44q.4 1.24 1.69 1.06.36-.05.47-.36.45-1.27-.04-2.48-7.07-17.49-18.85-31.32c-5.33-6.26-11.71-11.98-17.82-17.43-8.04-7.17-16.16-12.68-26.35-18.57q-22.62-13.1-31.67-17.81-10.82-5.63-27.04-11.55" vector-effect="non-scaling-stroke"/><path stroke="#3d3d3d" d="M937.6 97.78q.31.45 1.14.69 20.94 6.15 45.69 13.29 3.97 1.14 7.52 2.18 4.13 1.22 7.43 2.43 16.69 6.11 34.34 13 2.04.8 3.92 1.39" vector-effect="non-scaling-stroke"/><path stroke="#5a5a5a" d="M1037.64 130.76q.9 7.93 2.29 15.11.82 4.28.82 23.83c-.01 23.56-1.9 45.33-4.78 70.05q-.35 3.03-.08 11.01" vector-effect="non-scaling-stroke"/><path stroke="#41383c" d="M1035.89 250.76q-23.74-5.03-39.41-7.4-12.39-1.87-27.29-1.26-8.33.34-19.74 2.85-23.65 5.22-48.82 11.96-9.86 2.64-14.06 4.7-7.21 3.54-12.5 8.3-12.56 11.32-21.98 24.93c-11.36 16.42-18.4 37.37-23.14 57-.67 2.78-1.91 4.96-5.19 4.75-7.31-.45-14.64-1.55-22.09-2.26q-44.88-4.32-86.42-5.17c-17.4-.36-35.71-.98-53.44-.79q-47.18.54-92.46 6.81c-2.33.32-4.49.87-6.85.9q-.54 0-.96-.32-1.82-1.38-2.4-3.48-3.56-12.9-8.17-25-10.47-27.52-32.31-47.65c-7.79-7.18-14.28-11.82-23.87-14.22q-27.73-6.93-56.02-14.21" vector-effect="non-scaling-stroke"/><path stroke="#a2a2a2" d="M438.77 251.2q5.64-31.85 11.16-63.45 2.18-12.44 4.79-24.27" vector-effect="non-scaling-stroke"/><path stroke="#333" d="M454.72 163.48q3.12-6.44 5.05-13.13c2.8-9.74 6.85-17.14 16.16-22.4q10.97-6.21 20.99-9.89 17.59-6.47 40.8-14.27 1.54-.52 3.05-.87c2.65-.61 5.1-1.58 7.84-2.15q8.01-1.7 15.64-3.77 2.75-.75 5.29-2.15.56-.32 0-.63-.37-.21-1-.05" vector-effect="non-scaling-stroke"/><path stroke="#a2a2a2" d="M568.54 94.17q29.23-8.04 47.21-10.93 5.86-.95 28.96-3.59 18.88-2.16 42.76-10.57" vector-effect="non-scaling-stroke"/><path stroke="#000b15" d="M298.49 1078.81q1.4.69 1.84 1.94 2.08 5.97 3.27 14.04" vector-effect="non-scaling-stroke"/><path stroke="#672549" d="M303.6 1094.79q-13.25-2.35-25.88-5.7-3.06-.81-5.79-1.07-26.45-2.58-56.19.52-7.27.76-11.7 6.53-4.6 5.98-8.55 11.2-1.43 1.89-2.49 3.92-.93 1.78-.56 3.82 3.27 17.67 19.21 24.68 21.97 9.67 45.49 16.1 13.05 3.56 26.36 3.92 20.57.55 39.68 1.03.16 0 17.12.93 10.08.55 20.19-.29" vector-effect="non-scaling-stroke"/><path stroke="#0b0a0a" d="M360.49 1160.38q1.94-.04 2.69 1.25.21.37-.01.74-.14.23.08.51a.65.63-18.2 0 0 .51.25h1.18q.64 0 .73-.64.28-1.94 2.29-1.65.51.07.78.51 2.32 3.79-2.69 6.37" vector-effect="non-scaling-stroke"/><path stroke="#672549" d="M366.05 1167.72q-4.37-.03-20.3.76-7.93.39-24.51.05-10.81-.23-20.06-.24-14.92-.01-31.12.11-1.35.01-.9 1.28 8.91 25.2 30.81 38.61 15.57 9.53 30.59 18.92 2.95 1.85 6.18 2.13 4.32.37 17.5.67" vector-effect="non-scaling-stroke"/><path stroke="#0b0a0a" d="M354.24 1230.01q.93.25.95 1.02.01.15-.08.27-.09.13-.23.17-.37.1-.49.47-.94 3.06-1.46 6.2c-.19 1.15.24 2.03.38 3.17q.06.48-.12.93l-1.06 2.67" vector-effect="non-scaling-stroke"/><path stroke="#13050d" d="M645.48 1431.94q1.98.2 2.67 1.58.22.43.7.53 3.56.75 4.89 2.95 2.3 3.82 4.91 5.45" vector-effect="non-scaling-stroke"/><path stroke="#1f4966" d="M510.52 726.77q-12.5-6.82-24.76-13.54-22.92-12.55-49.91-16.66c-5.46-.83-12.63-.68-18.35-1.77q-12.97-2.45-17.94-2.72-45.05-2.47-55.35-2.22c-19.88.48-37.33 3.13-59.33 6.43-7.87 1.17-16.32 4.33-24.29 7.12" vector-effect="non-scaling-stroke"/><path stroke="#0d445a" d="M278.54 1075.44q-12.67-.6-25.28-1.82c-6.94-.67-10.01-1.39-9.51-9.36q.87-13.63 1.7-27.84c.63-10.7.89-21.15 1.58-31.69.93-14.1 1.6-28.55 2.14-42.73q.64-16.65-1.16-29.5-1.45-10.38-2.77-19.98" vector-effect="non-scaling-stroke"/><path stroke="#5a5a5a" d="M1061.4 528.1q-2.58 6.16-9.81 6.78c-5.79.49-11.96.77-17.42 2.07q-10.81 2.56-19.87 8.77-1.94 1.32-3.78 3.53-.34.4-.86.43l-2.54.15" vector-effect="non-scaling-stroke"/><path stroke="#3d3d3d" d="M1007.12 549.83q-19.22-2-38.23-4.56c-7.72-1.04-15.75-1.77-23.64-2.73q-4.59-.55-16.64-.55" vector-effect="non-scaling-stroke"/><path stroke="#5a5a5a" d="M928.61 541.99q-3.05-.31-6.37-.42-34.49-1.22-68.99-2.59c-24.37-.96-68.56 1.05-103.45-1.73-12.67-1.01-25.93-1.52-37.59-.58q-14.63 1.18-30.9 2.39-18.45 1.38-38.83 3.5-10.75 1.12-21.78.64-27.15-1.16-50.8.72-15.85 1.26-46.35 5.45c-6.02.83-12.24 1.21-18.39 1.31-16.93.29-34.23 1.24-51.6 3.84-13 1.95-26.07 3.98-38.87 5.19q-15.13 1.44-31.84 2.73c-15.59 1.21-29.57 3.34-45.41 5.94q-24.88 4.09-50.19 3.61-1.42-.02-3.68-1.56" vector-effect="non-scaling-stroke"/><path stroke="#a2a2a2" d="M283.57 570.43q2.04-4.87-2.2-5.6" vector-effect="non-scaling-stroke"/><path stroke="#352c30" d="M1149.91 344.97q-.82-.62-1.06-1.06-6.64-12.14-12.73-23.58c-3.18-6-6.51-10.3-11.17-14.53q-4.89-4.44-10.01-8.7-14.71-12.23-29.53-24.66-8.41-7.05-18.92-11.44-15.41-6.45-30.6-10.24" vector-effect="non-scaling-stroke"/><path stroke="#333" d="M1239.06 759.44q-1.87-1.49-4.6-.17-1.13.54-1.35 1.74-.84 4.6 1.65 5.93" vector-effect="non-scaling-stroke"/><path stroke="#13050d" d="M986.94 1424.26q1.18-1.59.93-2.27-.41-1.08-.55-2.2-.06-.49-.45-.8-.74-.59-1.12-1.51" vector-effect="non-scaling-stroke"/><path stroke="#0d445a" d="M985.75 1417.48q5.58-1.06 11.16-1.95 6.01-.95 10.3-2.21 9.26-2.73 21.26-6.91 16.75-5.84 28.07-16.22c20.03-18.37 38.19-38.04 54.66-59.28q11.68-15.07 23.35-29.97c7.86-10.03 14.71-20.29 21.38-30.95q15.64-24.99 31.65-52.17 16.84-28.57 33.21-67.58 2.66-6.34 5.18-12.32c8.69-20.56 14.71-42.88 15.05-65.41q.71-46.81 1.7-94.59.21-10.48 0-19.91-1-43.21-3.56-71.27-1.76-19.26-4.69-33.49-3.63-17.68-6.32-33.42-4.22-24.61-5.83-32.71c-1.32-6.65-2.65-14-5.91-20.25" vector-effect="non-scaling-stroke"/><path stroke="#0b0a0a" d="M1216.41 766.87q2.29 0 2.95-2.25 1.12-3.78 1.92-7.47.36-1.61 2.26-5.46c.79-1.59 1.98-2.35 3.71-2.66q5.1-.9 9.76-1.16 5.68-.31 9.2-1.18 15.25-3.77 38.02-10.43 3.69-1.08 7.45-2.58c6.04-2.43 11.9-4.83 18.1-7.05q19.75-7.06 37.76-17.83 6.24-3.73 13.06-7.92c9.52-5.86 18.12-12.73 25.24-21.46q5.19-6.35 6.92-14.43c1.27-5.93-2.44-9.13-5.49-13.28q-.04-.07-2.61-4.24-1.63-2.64-4.18-4.48" vector-effect="non-scaling-stroke"/><path stroke="#272727" d="M1380.48 642.99q.15-3.16-1.28-5.96-1.49-2.93-3.26-5.73" vector-effect="non-scaling-stroke"/><path stroke="#0b0a0a" d="M1375.94 631.3q1.32-1.85 1.78-3.32.68-2.16.98-4.4c.49-3.76-2.8-8.73-5.18-11.23q-4.58-4.82-10.46-9.05c-11.07-7.97-23.5-15.24-37.25-16.96q-5.63-.71-10.31-1.97-2.01-.54-5.41 1.18" vector-effect="non-scaling-stroke"/><path stroke="#272727" d="M1310.09 585.55q-33.7-13.97-67.35-22.51-25.76-6.54-41.36-10.85-3.46-.95-6.85-1.38-3.24-.4-6.97-.85" vector-effect="non-scaling-stroke"/><path stroke="#2e9bc6" d="M361.24 624.85q1.79-.04 1.88-1.06.05-.48.34-.87.8-1.07 1.77-1.89 7.58-6.35 16.17-12.28.41-.29.25-.77-.15-.47-.61-.77" vector-effect="non-scaling-stroke"/><path stroke="#1f4966" d="M985.75 1417.48c-17.15 2.71-37.96 6.82-59.08 9.74-21.77 3.01-43.8 2.6-65.72 6.01q-12.3 1.91-25.86 1.96c-19.08.07-36.14.01-54.09 1.73-6.07.58-12.18-.81-18.21-1.36" vector-effect="non-scaling-stroke"/><path stroke="#2e9bc6" d="m351.06 626.35 7.68-16.59" vector-effect="non-scaling-stroke"/><path stroke="#712f53" d="M354.24 1230.01q19.4.54 38.76 1.38 19.4.85 85.01 1.08c23.55.08 47.23-.57 70.47-.87q9.22-.12 20.01-.56c21.21-.85 43.27-1.26 65-2.35 16.32-.81 33.03-1.35 49.3-2.31q40.49-2.4 68.76-3.45 32.75-1.21 71-1.2c12.08.01 24.06 1.04 36.21 1.08q52.89.14 103.77-3.08 20.08-1.27 43.14-5.27c15.09-2.62 28.47-7.28 43.14-12.91q15.34-5.88 30.16-11.57c10.57-4.05 12.52-15.22 10.94-25.66-.36-2.42-2.21-3.12-4.48-3.1-83.68.95-168 1.27-252.18 2.39q-68.17.9-201.5 1.72-9.48.06-20 .22c-80.51 1.22-163.62 2.04-245.7 2.17" vector-effect="non-scaling-stroke"/><path stroke="#1f4966" d="M804.96 1448.38c-9.86-.8-20.52.23-30.97.09q-9.1-.13-18.22.22" vector-effect="non-scaling-stroke"/><path stroke="#0b151f" d="M908.96 1100.68q-1.73 3.97-4.33 7.59-.05.06-1.23 1.29-1.27 1.31-.44 3.38" vector-effect="non-scaling-stroke"/><path stroke="#67305e" d="M902.96 1112.94q-4.34.59-5.92 1.58-9.86 6.17-19.89 12.06-8.77 5.15-15.7 6.94-17.11 4.42-39.05 6.69-7.68.79-16.95.82-18.76.05-36.11-.14-18.77-.21-38.61-3.98-22.49-4.27-45.92-9.14c-9.66-2.02-18.55-4.96-27.93-8.07q-4.39-1.46-9.98-2.13-9.3-1.11-17.53-2.28c-9.23-1.32-19.74.73-29.65-1.93-4.73-1.27-8.31-.9-12.85.48q-3.04.92-6.25 1.7-19.39 4.71-39.09 9.86c-5.68 1.49-12.14 2.94-18.1 3.71q-23.8 3.1-49.13 6.17c-6.91.83-14.1 1.39-20.3 1.26q-15.9-.35-31.21-.33-11.22.02-17.57-.52c-16.72-1.41-32.53-4.78-49.41-9.48q-8.33-2.33-14.51-5.45-3.75-1.9-10.2-7.04-13.16-10.49-27.5-18.93" vector-effect="non-scaling-stroke"/><path stroke="#712f53" d="M902.96 1112.94q83.08 2.02 166.16.41c7.51-.14 12.16-1 17.29 6.07q7.85 10.8 4.55 23.27c-.47 1.78-1.75 3.43-3.71 3.68q-4.64.58-9.5.62-104.29.92-231.24 3.74c-29.39.66-58.8.83-88.5 1.3-34.9.55-69.76.61-104.26.99q-82.66.89-141.01 2.22c-20.89.47-41.69.51-62.74.72-29.17.3-53.32 1.88-80 3.62q-4.76.31-9.51.8" vector-effect="non-scaling-stroke"/><path stroke="#752a52" d="M899.59 373.42q-10.12 26.42-14.48 48.42-7.31 36.83-8.47 74.3a1.16 1.15-88.5 0 0 1.12 1.19q25.37.71 51.83 2.06c10.46.53 21.46 1.56 31.65 2.63q39.85 4.18 77.27 8.24 4.23.46 8.05.73c1.63.12 2.55-.44 3.04-1.96q9.56-29.71 23.63-56.64c3.17-6.08 4.54-10.79 5.06-17.18q1.28-15.71 1.78-27.68c1.11-26.67-11.19-52.01-26-73.88-5.68-8.4-12.3-14.79-21.21-19.24q-17.15-8.56-35.16-8.56-15.46.01-29.23 2.35-9.69 1.66-17.96 6.36c-16.86 9.6-33.8 22.93-42.57 39.83q-4.05 7.81-8.35 19.03m-580.94-2.83q-10.41 24.27-8.53 51.31.85 12.28 1.81 24.8.31 4.07 2.05 7.45 18.6 36.22 30.48 75.75c1.59 5.27 3.81 9.16 7.88 12.52q1.72 1.43 4.25 1.06 26.14-3.9 50.58-7.41c10.14-1.46 20.09-1.66 30.82-2.9 12.74-1.48 26.75-5.03 39.46-7.25q14.17-2.47 30.36-4.1c1.8-.19 5.15-1.25 5.8-3.29.8-2.53.41-6.22.23-8.77-.43-6.38-1.23-12.61-1.45-19.12q-.62-19.05-3.61-39.74-4.98-34.48-16.74-66.1c-5.31-14.29-10.95-29.53-22.13-40.13q-16.5-15.63-33.95-24.93c-3.73-1.99-7.84-3.52-12.04-4.17q-10.93-1.69-22.19-2.58-20.03-1.58-38.46 5.58c-10.41 4.05-18.56 9.83-25.23 18.32q-10.88 13.85-19.39 33.7" vector-effect="non-scaling-stroke"/><path stroke="#2b2226" d="M604.81 360.45q-19.79 1.09-39.08 3.88c-5.13.74-9.27 1.96-7.5 8.16q3.21 11.27 5.46 22.31c2.62 12.85 3.97 27.45 4.38 40.55q.77 24.65.63 56.57-.04 10.31-4.19 18.27a1.94 1.93 24.8 0 0 1 2.7c1.27.51 2.62.25 3.96.12q30.25-2.91 54.54-6.02 31.26-3.99 58.95-5.81 35.94-2.36 70.04-4.09 33.75-1.72 67.5-.09 1.67.08 3.24-.29a1.59 1.59 0 0 0 1.21-1.75c-.87-6.93-2.55-13.86-4.42-20.57q-3.42-12.33-3.27-24.46.16-13.76 2.57-29.58c.51-3.37.48-6.73.9-10.1q2.56-20.23 5.6-40.59a2.02 2.02 0 0 0-1.56-2.27q-3.94-.87-7.88-1.34-32.61-3.9-68.93-6.87-27.76-2.27-60.43-1.9-36.07.41-69.1 2.38-6.85.41-13.62.79" vector-effect="non-scaling-stroke"/><path stroke="#3d3d3d" d="M247.8 658.51q-4.01-9.09-12.26-9.33c-2.78-.08-9.87 1.12-11.39 3.73a.53.51-68.2 0 0 .32.77q11.63 2.83 21.69 5.61.61.17 1.24.03.69-.16.4-.81m1.374 16.907a19.87 3.82 9.2 0 0-19.003-6.948 19.87 3.82 9.2 0 0-20.225.594 19.87 3.82 9.2 0 0 19.003 6.948 19.87 3.82 9.2 0 0 20.225-.594" vector-effect="non-scaling-stroke"/><path stroke="#323131" d="M1265.3 692.52q1.03 7.08 8 9.9 10.36 4.19 24.41 9.18 3.86 1.37 8.25-.06 1.5-.48 3.07-1.63 2.93-2.13-.46-3.42-20.97-8-41.35-15.63-1.24-.46-1.78.69a1.67 1.64 53.8 0 0-.14.97" vector-effect="non-scaling-stroke"/><path stroke="#3d3d3d" d="M1280.342 718.785a14.52 2.67 19.2 0 0-12.834-7.296 14.52 2.67 19.2 0 0-14.59-2.254 14.52 2.67 19.2 0 0 12.834 7.297 14.52 2.67 19.2 0 0 14.59 2.253m-18.816 4.84a.73.73 0 0 0-.735-.725l-17.26.12a.73.73 0 0 0-.724.735l.007.98a.73.73 0 0 0 .735.725l17.26-.12a.73.73 0 0 0 .724-.735l-.007-.98m-44.996 1.945q-2.19-.71-4.62-1.45a1.08 1.07 13.2 0 0-1.38.85c-.88 5.17 2.28 8.97 7.76 7.94q8.31-1.57 16.21-2.5a1.38 1.37-69.1 0 0 .77-.35q.99-.87.63-1.71a1.08 1.08 0 0 0-1.09-.65q-9.26.78-18.28-2.13" vector-effect="non-scaling-stroke"/><path stroke="#345b79" d="M843.76 637.71q-2.95-.86-4.27-.84-28.61.43-44.97 2.35-38.5 4.5-67.52 33.79c-6.08 6.13-11.29 11.18-12.55 20.23q-1.68 12.11-3.24 24.8c-.59 4.79-2.03 7.96-5.85 10.73-26.46 19.16-44.63 45.04-58.13 74.67-1.48 3.24-2.32 6.98-2.2 10.56q.52 15.79 1.88 34.67c.17 2.41.77 4.67 2.02 6.75q8.91 14.85 21 29.26c17.75 21.15 43.52 35.73 69.79 43.85" vector-effect="non-scaling-stroke"/><path stroke="#2e9bc6" d="M739.72 928.53q-.8 5.88 2.25 10.26 1.79 2.59 4.34 4.43c15.69 11.4 35.88 21.64 55.07 20.19 5.87-.44 12.32-1.35 17.8-1.75q23.77-1.74 46.7-3.86c7.92-.73 15.6-1.89 23.37-3.08q12.18-1.86 21.46-10.64" vector-effect="non-scaling-stroke"/><path stroke="#345b79" d="M910.71 944.08q7.11-1.24 23.04-2.81 10.27-1.01 28.47-4.44 13.24-2.5 24.08-9.96 15.18-10.45 28.23-24.76 7.95-8.71 12.62-14.96 14.07-18.77 17.99-43.64 1.29-8.2 1.83-19.3.73-15.16-6.1-28.34-15.75-30.34-46.5-49.19-25.35-15.54-56.31-28.68-3.46-1.47-7.06-2.47-7.47-2.08-17.26-4.14" vector-effect="non-scaling-stroke"/><path stroke="#2e9bc6" d="M913.74 711.39q-1.27-3.23-3.79-5.58c-3.83-3.57-9.59-4.7-14.71-5.41-4.96-.69-10.1-1.54-14.79-2.95-13.98-4.19-28.92-5.45-42.31-7.86-22.28-4.01-43.09-6.12-65.68-4.44q-17.93 1.33-35.69 4.01-.41.06-3.22.69-1.64.38-3.28.36" vector-effect="non-scaling-stroke"/><path stroke="#345b79" d="M730.27 690.21q20.19-22.42 47.3-32.33 6.18-2.26 13.34-3.23c22.72-3.07 43.69-3.47 65.51-.74q19.38 2.42 41.83 6.33c14.37 2.5 27.78 5.24 40.52 11.34q18.26 8.75 36.66 17.6 17.82 8.58 30.99 23.54 8.77 9.97 18.34 21.35 1.89 2.24 4.07 4.07c1.48 1.24 3.85.3 4.05-1.69 1.46-14.81-10.71-29.4-21.35-40.05" vector-effect="non-scaling-stroke"/><path stroke="#2e9bc6" d="M1011.53 696.4q4.63-2.25 2.22-6.87-14.58-27.91-40.33-52.12-7.74-7.28-13.91-10.98-12.15-7.28-28.1-8.03c-5.21-.24-10.8.34-15.97 1.16q-32.7 5.21-63.08 13.85-3.38.96-6.74 1.45-1.2.18-1.86 2.85" vector-effect="non-scaling-stroke"/><path stroke="#1f4966" d="M1011.53 696.4q-32.35-23.23-69.31-38.62-9.99-4.17-18.92-6.52-11.1-2.91-20.94-4.41c-10.81-1.65-21.23-2.67-32.49-4.53q-8.44-1.39-17.62-2.65-3.78-.52-8.49-1.96m-113.49 52.5q-3.23 12.3-5.62 25.86-.25 1.42-.17 2.78a.77.76 85.7 0 0 .84.73q2.74-.27 5.3-.9 22.1-5.43 42.85-9.24 18.38-3.36 35.82-3.9c18.46-.57 37.21-.51 55.49.16q9.04.33 19.9 1.73 14.45 1.86 29.06 3.96m-3.03 232.69q-10.65 0-22.46.87-11.5.85-46.5 2.86-30.87 1.77-70.88-5.37c-4.07-.73-8.62-2.33-12.22-4.07q-5.85-2.83-18.93-9.84" vector-effect="non-scaling-stroke"/><path stroke="#92848c" d="M974.25 750.95c-20.33-11.46-40.23-21.21-62.94-27.24q-9.13-2.42-19.33-3.34-13.71-1.24-27.55-2.56c-18.91-1.79-37.55-1.89-56.8-1.52q-12.68.25-25.99 3.32-11.19 2.59-22.91 4.88-20.55 4-40.45 12.96-11.55 5.2-23.02 17.05-16.84 17.39-27.29 35.35-7.26 12.48-10.12 25.67-1.94 8.92-1.1 16.16c1.62 13.96 8.27 24.97 17.06 36.54 8.49 11.17 17.06 20.17 28.48 27.72q9.48 6.27 17.29 9.98 17.35 8.25 34.72 16.45 16.33 7.72 33.65 10.26c7.39 1.09 15.29 2.1 23.08 2.34q25.67.77 50.85-.06c8.72-.28 17.88-1.24 26.71-1.95 8.62-.7 17.39-2.36 25.76-2.51 18.27-.35 35.08-4.27 52.74-8.86 5.1-1.32 9.74-3.73 13.93-6.79 29.47-21.49 56.4-55.19 53.11-93.61-1.06-12.37-8.02-24.93-15.98-34.21q-18.72-21.85-43.9-36.03m-434.34 19.54c-28.65-31.99-68.25-53.54-110.66-60.52q-63.5-10.44-128.06-3.12-7.6.86-12.71 2.12c-11.43 2.8-23.03 7.18-33.68 11.44q-8.83 3.53-16.41 11.93-21.61 23.96-33.02 47.89-3.14 6.58-5.04 13.04c-6.02 20.48-2.6 41.08 9.15 58.59 14.12 21.04 33.11 42.1 55.54 53.1q9.23 4.53 21.73 8.61 7.2 2.34 15.55 3.24 10.74 1.16 22.68 2.34 21.69 2.14 43.52 4.54 5.26.57 9.99 1.14 18.03 2.17 34.77.38c16.96-1.81 33.45-5.75 50.33-9.66q23.54-5.44 42.54-20.17c17.37-13.46 29.61-30.71 40.23-50.37q4.87-9.04 7.04-17.09c3.9-14.5 2.14-33.17-5.55-45.86q-5.05-8.35-7.94-11.57" vector-effect="non-scaling-stroke"/><path stroke="#92848c" d="M290.62 842.2c17.7 28.61 53.08 41.88 84.88 48.49 9.05 1.88 18.92 2.37 27.69.83 20.59-3.6 42.38-14.74 56.33-30.42 12.08-13.58 18.34-31.06 15.3-48.8q-4.05-23.66-17.5-40.83-21.39-27.29-55.54-34.8-28.61-6.29-57.64.08-32.38 7.11-55.61 31.95c-5.83 6.23-10.86 13.07-12.31 21.85q-.89 5.33.23 12.2 3.65 22.44 14.17 39.45m523.72 64.4q23.64 9.21 48.66 7.22c8.11-.65 15.82-2.5 23.18-5.4q18.65-7.33 32.64-17.18 24.57-17.32 27.06-46.27c.43-5.01.33-10.73-1.35-15.35q-5.37-14.81-14.43-31.26-6.84-12.41-16.98-19.7-15.42-11.09-32.15-18.21-13.48-5.73-29.89-6.85c-16.11-1.11-30.36-.24-44.55 5.16q-11.62 4.43-20.14 8.98c-17.43 9.31-39.16 28.82-43.65 49.33-3.22 14.69.55 27.57 9.36 40.57q17.55 25.91 43.59 40.09 10.35 5.64 18.65 8.87" vector-effect="non-scaling-stroke"/><path stroke="#92848c" d="M349.58 770.98c-16.92-7.94-41.41 7.61-34.07 27.44 3.64 9.83 12.06 17.68 21.86 20.73 12.92 4.03 25.65 0 34.35-10.37 2.27-2.71 4.22-5.24 3.08-9.04-3.88-12.88-13.24-23.15-25.22-28.76m489.687 57.791a30.39 25.3 38.7 0 0-7.898-38.746 30.39 25.3 38.7 0 0-39.536.744 30.39 25.3 38.7 0 0 7.898 38.746 30.39 25.3 38.7 0 0 39.536-.744" vector-effect="non-scaling-stroke"/><path stroke="#333d48" d="M608.77 1095.27a1.29 1.29 0 0 0-1.31.05l-1.92 1.23a1.29 1.29 0 0 0 .05 2.2l3.02 1.75a1.29 1.29 0 0 0 1.53-.17l1.61-1.51a1.29 1.29 0 0 0-.27-2.07l-2.71-1.48" vector-effect="non-scaling-stroke"/></g><g fill="#656565"><path d="M937.6 97.78q.31.45 1.14.69 20.94 6.15 45.69 13.29 3.97 1.14 7.52 2.18 4.13 1.22 7.43 2.43 16.69 6.11 34.34 13 2.04.8 3.92 1.39.9 7.93 2.29 15.11.82 4.28.82 23.83c-.01 23.56-1.9 45.33-4.78 70.05q-.35 3.03-.08 11.01-23.74-5.03-39.41-7.4-12.39-1.87-27.29-1.26-8.33.34-19.74 2.85-23.65 5.22-48.82 11.96-9.86 2.64-14.06 4.7-7.21 3.54-12.5 8.3-12.56 11.32-21.98 24.93c-11.36 16.42-18.4 37.37-23.14 57-.67 2.78-1.91 4.96-5.19 4.75-7.31-.45-14.64-1.55-22.09-2.26q-44.88-4.32-86.42-5.17c-17.4-.36-35.71-.98-53.44-.79q-47.18.54-92.46 6.81c-2.33.32-4.49.87-6.85.9q-.54 0-.96-.32-1.82-1.38-2.4-3.48-3.56-12.9-8.17-25-10.47-27.52-32.31-47.65c-7.79-7.18-14.28-11.82-23.87-14.22q-27.73-6.93-56.02-14.21 5.64-31.85 11.16-63.45 2.18-12.44 4.79-24.27 3.12-6.44 5.05-13.13c2.8-9.74 6.85-17.14 16.16-22.4q10.97-6.21 20.99-9.89 17.59-6.47 40.8-14.27 1.54-.52 3.05-.87c2.65-.61 5.1-1.58 7.84-2.15q8.01-1.7 15.64-3.77 2.75-.75 5.29-2.15.56-.32 0-.63-.37-.21-1-.05 29.23-8.04 47.21-10.93 5.86-.95 28.96-3.59 18.88-2.16 42.76-10.57 24.33-3.18 50.28-1.6 42.26 2.56 84.26 7.94 46.6 5.98 92.49 16.02 4.95 1.08 23.1 6.34zm123.8 430.32q-2.58 6.16-9.81 6.78c-5.79.49-11.96.77-17.42 2.07q-10.81 2.56-19.87 8.77-1.94 1.32-3.78 3.53-.34.4-.86.43l-2.54.15q-19.22-2-38.23-4.56c-7.72-1.04-15.75-1.77-23.64-2.73q-4.59-.55-16.64-.55-3.05-.31-6.37-.42-34.49-1.22-68.99-2.59c-24.37-.96-68.56 1.05-103.45-1.73-12.67-1.01-25.93-1.52-37.59-.58q-14.63 1.18-30.9 2.39-18.45 1.38-38.83 3.5-10.75 1.12-21.78.64-27.15-1.16-50.8.72-15.85 1.26-46.35 5.45c-6.02.83-12.24 1.21-18.39 1.31-16.93.29-34.23 1.24-51.6 3.84-13 1.95-26.07 3.98-38.87 5.19q-15.13 1.44-31.84 2.73c-15.59 1.21-29.57 3.34-45.41 5.94q-24.88 4.09-50.19 3.61-1.42-.02-3.68-1.56 2.04-4.87-2.2-5.6 1.32-.24 2.77-.64 1.49-.42 2.76-.51 28.91-2.07 46.84-4.28 60.23-7.43 114.03-14.19 54.07-6.79 131.07-16.77 9.82-1.28 19.86-2.3 55.36-5.64 93.62-7.87 19.4-1.13 39.85-2.44 9.42-.6 19.65-.86c8.84-.23 17.91-.73 26.59-.81q79.39-.8 159.63.93c18.37.39 36.68 2.39 54.94 4.95q9.63 1.36 19.78 2.37 12.12 1.22 24.24 2.54 11.71 1.28 24.4 3.15zM247.8 658.51q.29.65-.4.81-.63.14-1.24-.03-10.06-2.78-21.69-5.61a.53.51-68.2 0 1-.32-.77c1.52-2.61 8.61-3.81 11.39-3.73q8.25.24 12.26 9.33z"/><ellipse rx="19.87" ry="3.82" transform="rotate(9.2 -4062.799 1762.701)"/><ellipse rx="14.52" ry="2.67" transform="rotate(19.2 -1477.425 4101.388)"/><rect width="18.72" height="2.44" x="-9.36" y="-1.22" rx=".73" transform="rotate(-.4 104356.808 -178997.322)"/><path d="M1216.53 725.57q9.02 2.91 18.28 2.13a1.08 1.08 0 0 1 1.09.65q.36.84-.63 1.71a1.38 1.37-69.1 0 1-.77.35q-7.9.93-16.21 2.5c-5.48 1.03-8.64-2.77-7.76-7.94a1.08 1.07 13.2 0 1 1.38-.85q2.43.74 4.62 1.45zm22.53 33.87q-1.89 3.07-2.64 6-.18.72-1.66 1.5-2.49-1.33-1.65-5.93.22-1.2 1.35-1.74 2.73-1.32 4.6.17zm-630.29 335.83 2.71 1.48a1.29 1.29 0 0 1 .27 2.07l-1.61 1.51a1.29 1.29 0 0 1-1.53.17l-3.02-1.75a1.29 1.29 0 0 1-.05-2.2l1.92-1.23a1.29 1.29 0 0 1 1.31-.05z"/></g><path fill="#43add9" d="M891.01 274.37q-.22 13.26 3.42 23.39 5.47 15.22 19.81 24.61-18.23 18.92-26.47 43.37-4.03 11.94-9.49 30.52-5.38 18.3-7.77 43.42c-.76 7.96-2.15 18.73-2.99 28.12q-1.23 13.63-2.61 28.22-.09.89-.97.83-15.92-1.1-30.91-.19-1.61.09-1.78-1.51-1.3-12.58-3.63-26.65c-.34-2.04-.68-4.28-.71-6.33q-.25-17.39.5-34.37.51-11.42 2.85-22.8 9.84-47.67 24.83-86.15 10.4-26.71 35.92-44.48zm-390.84 8.54c16.53 11.22 27.88 25.88 34.82 44.29q16.29 43.2 24.41 84.26 2.08 10.57 2.67 19.99c.95 15.14 1.58 30.4-.2 45.06q-2.09 17.14-4.54 34.89-.85 6.18-7.6 7.23-9.53 1.48-20.83 2.95-1.22.16-2.45.1-.54-.03-.85-.47-1.36-1.93-1.28-4.66.51-18.37-1.51-38.29-2.42-23.81-5.05-44.76-1.29-10.3-4.41-22.37-5.01-19.42-11.84-39.17-8.5-24.58-26.46-43.38 1.87-.99 3.79-2.05 2.03-1.13 3.54-2.46 13.05-11.55 16.05-29.09 1-5.78 1.74-12.07zm654.36 358.61q.22.42-.01.69-.32.37-.74.1-2.04-1.31-4.5-1.39-10.56-.34-12.76 10.12c-1.69 8.03-2.74 15.81-2.47 24.21q.35 10.37-.97 18.81-1.53 9.79-1.52 19.18c.02 20.61-.16 40.39.54 60.53q.48 13.76 1.39 28.02.79 12.22 2.38 23.95 3.23 23.75 6.54 47.49 3.43 24.55 6.46 57.79c1.92 21.05 2.92 42.29 5.28 63.07q.93 8.27 1 18.42.13 19.09-.01 37.76-.14 19.18-3.47 37.97-1.62 9.17-4.39 16.6-4.42 11.84-8.7 23.4c-3.38 9.11-5.57 18.13-7.71 27.44q-1.85 8.04-6.03 12.85-14.26 16.42-25 31.11c-10.32 14.12-20.49 29.58-32.25 42.11q-30.67 32.69-64.69 62.5-13.08 11.45-26.94 20.83-26.2 17.72-52.3 34.37-10.95 6.99-28.57 16.42-24.87 13.31-48.6 24.62-17.21 8.2-36.96 17.8-10.39 5.06-20.64 8.03-8.88 2.57-20.15 4.96-2.31.49-4.43 2.57a.45.44-28.8 0 0-.13.43q.04.15.12.27.26.41-.16.65-.6.33-1.35.36-6.32.38-9.29.15-11.16-.86-23.49-1.96-3.19-.29-6.02-.81-2.85-.52-6.02-.66-27.41-1.2-56.22-1.27-3.28-.01-16.27.93-10.22.38-19.98-3.19-26.65-9.76-53.94-15.15-15.51-3.07-19.63-4.12c-28.74-7.35-56-17.91-81.7-31.93q-17.48-9.53-34.66-18.95-11-6.04-18.58-12.14c-18.69-15.03-37.77-32.34-53.73-50.14q-4.76-5.31-12.79-15.37c-15.17-19.01-30.06-37.17-46.36-54.7q-1.36-1.47-1.56-3.23a1.03 1.03 0 0 1 1.63-.94q7.42 5.5 14.51 9.49c7.15 4.02 15.79 7.39 23.8 10.76q3.21 1.35 9.64 2.58 3.27.66 5.12.76c11.71.62 23.96-.9 35.76-.79q57.11.53 115.24.69 75.31.21 106.5-.9 39.72-1.42 70.24-4.04 24.56-2.11 51.28-4.25 18.11-1.44 48.99-1.27c40.99.24 81.78.05 121.73-.02q23.54-.04 52.86-1.75 16.1-.93 31.38-2.83 37.89-4.71 72.32-18.85 10.9-4.47 16.12-7.84 22.56-14.53 27.67-42.32c1.28-6.93-.11-15.58.78-23.03.85-7.13.27-13.73-4.79-18.95q-6.19-6.38-13.4-12.72-6.53-5.75-16.27-5.98-76.33-1.82-160.16-.26-1.93.03-4.54.12 2.02-4.11 3.47-8.21 1.58-4.45 1.45-8.28-.3-8.87-1.95-20.71c-2.76-19.82-14.79-32.2-33.55-36.78q-8.47-2.06-15.09-2.65c-11.06-.98-21.91 3.36-30.84 10.32-4.55 3.55-6.34 7.53-4.33 13.23 1.16 3.3 4.25 13.32 9.2 6.93q4.24-5.47 11.38-9.08 7.85-3.96 14.51-.39c7.35 3.94 13.93 13.85 6.04 21.24q-4.59 4.29-12.6 5.68-16.68 2.87-31.22-5.96c-13.18-8.01-26.33-16.82-39.44-25.58q-8.46-5.65-15.49-9.17c-11.43-5.72-24.07-11.35-35.68-16.08-17.85-7.28-38.08-7.47-57.94-5.1q-20.31 2.43-38.38 11.45c-12.42 6.2-23.7 12.69-31.8 24.42q-1.2 1.74-2.67.23c-22.77-23.44-53.17-34.8-85.51-36.96q-19.12-1.28-34.82 3.36-15.5 4.58-37.02 13.71c-7.02 2.98-13.95 6.43-20.67 10.22q-14.02 7.91-28.17 15.92c-15.45 8.74-33.2 14.62-49.85 4.36-4.46-2.75-7.51-7.55-5.25-12.8 3.31-7.66 10.86-13.52 19.36-10.91 8.05 2.48 12.13 7.59 17.22 13.92a2 2 0 0 0 2.87.26c2.55-2.21 4.12-6.46 5.15-9.59 1.88-5.75-.35-10.5-4.97-14.06q-9.49-7.33-23.36-10.71c-6.33-1.55-13.02.03-19.39 1.14q-7.11 1.25-10.91 2.67c-9.63 3.6-18.8 11.12-23.08 20.74-3.48 7.84-4.88 16.99-5.57 25.92q-.6 7.79-.85 14.72-.02.3-.23.52-.25.27-.49.19-9.59-.54-14.36-1.94-4.27-1.24-5.59-1.43c.46-1.72.97-3.42 1.06-5.24q1.33-26.79 3.49-56.33c1.12-15.32-.62-31.13-.25-44.95q.36-13.39.85-27.23.21-6-.99-9.44-1.7-4.85-3.53-10.06 4.52 1.72 8.86 3.18 3.51 1.17 8.57 2.2 4.83.99 8.64 1.99 10.27 9.3 24.01 11.18 9.26 1.26 18.79 3.53c9.32 2.22 18.69 4.07 27.78 4.23q19.91.35 49.69 1.18 20.44.56 40.51-2.79 5.03-.84 10.51-1.51 7.03-.87 10.47-1.73 16.12-4.05 27.15-16.37c3.6-4.01 6.28-8.68 9.02-13.33 3.37-5.72 4.6-10.12 1.06-16.13q4.92-4.33 11.29-10.8 5.92-6.01 10.06-11.94 3.26-4.69 7.47-13.64 4.86-10.32 9.47-19.9c2.59-5.37 4.98-11.57 5.49-17.07q1.73-18.75-3.3-38.48c-2.5-9.83-9.38-17.68-16.01-25.38q-9.84-11.44-19.03-19.02-6.54-5.39-19.15-14.82-.72-3.3-3.26-6.01c-6.14-6.54-11.91-13.02-18.37-17.41q-14.52-9.88-29.03-18.64c-17.03-10.29-37.51-17.55-57.53-23.36-7.21-2.09-14.36-.81-20.84-2.02-4.34-.81-7.44-2.8-12.28-1.74q-40.47 8.91-76.06 20.75-15.07 5-25.35 11.45-7.04 4.42-7.21 13.62-6.66 3.96-13.58 4.88-2.47-1.04-2.5-2.54-.05-2.94.87-5.65 7.77-21.9 27.25-33.91 11.41-7.03 22.74-13.83 12.18-7.31 26.79-8.73c6.77-.66 13.82-.59 20.36-1.58q7.77-1.18 16.31-2.69 4.57-.81 10.42-.19 24.2 2.54 46.96 6.82c13.08 2.46 26.37 5.74 38.74 10.29q29.51 10.85 55.74 28.71 5.47 3.72 11.58 10.11 7.43 7.76 14.07 14.86 2.29 2.45 5.62 2.3a.72.72 0 0 0 .69-.71q.01-2.46-.54-4.8-2.66-11.42-8.72-20.62 1.3-3.52.21-8.5-1.94-8.94-5.07-14.55-3.02-5.45-8.56-12.94-14.83-20.07-29.41-34.37c-8.15-7.99-17.57-12.27-28.53-15.16q-2.86-.76-6.1-.52a1.26 1.24-26.4 0 1-.88-.29q-.93-.75.17-1.36 29.87-6.65 63.78-7.21c21.34-.35 53.47-1.78 84.99-2.74q41.13-1.25 81.53-3.88 10.37-.67 19.99-.75c41.58-.32 80.58 1.19 121.83 2.26q9.74.25 20.38.72 23.16 1.03 47.75 2.24 14.1.69 33.01 3.24 27.89 3.76 57.64 7.99 9.73 1.38 19.82 2.56 51.24 5.98 101.81 12.26c17.49 2.18 30.03 10.49 42.75 22.11q2.83 2.58 4.03 4.28zm-310.77-3.81q-2.95-.86-4.27-.84-28.61.43-44.97 2.35-38.5 4.5-67.52 33.79c-6.08 6.13-11.29 11.18-12.55 20.23q-1.68 12.11-3.24 24.8c-.59 4.79-2.03 7.96-5.85 10.73-26.46 19.16-44.63 45.04-58.13 74.67-1.48 3.24-2.32 6.98-2.2 10.56q.52 15.79 1.88 34.67c.17 2.41.77 4.67 2.02 6.75q8.91 14.85 21 29.26c17.75 21.15 43.52 35.73 69.79 43.85q-.8 5.88 2.25 10.26 1.79 2.59 4.34 4.43c15.69 11.4 35.88 21.64 55.07 20.19 5.87-.44 12.32-1.35 17.8-1.75q23.77-1.74 46.7-3.86c7.92-.73 15.6-1.89 23.37-3.08q12.18-1.86 21.46-10.64 7.11-1.24 23.04-2.81 10.27-1.01 28.47-4.44 13.24-2.5 24.08-9.96 15.18-10.45 28.23-24.76 7.95-8.71 12.62-14.96 14.07-18.77 17.99-43.64 1.29-8.2 1.83-19.3.73-15.16-6.1-28.34-15.75-30.34-46.5-49.19-25.35-15.54-56.31-28.68-3.46-1.47-7.06-2.47-7.47-2.08-17.26-4.14-1.27-3.23-3.79-5.58c-3.83-3.57-9.59-4.7-14.71-5.41-4.96-.69-10.1-1.54-14.79-2.95-13.98-4.19-28.92-5.45-42.31-7.86-22.28-4.01-43.09-6.12-65.68-4.44q-17.93 1.33-35.69 4.01-.41.06-3.22.69-1.64.38-3.28.36 20.19-22.42 47.3-32.33 6.18-2.26 13.34-3.23c22.72-3.07 43.69-3.47 65.51-.74q19.38 2.42 41.83 6.33c14.37 2.5 27.78 5.24 40.52 11.34q18.26 8.75 36.66 17.6 17.82 8.58 30.99 23.54 8.77 9.97 18.34 21.35 1.89 2.24 4.07 4.07c1.48 1.24 3.85.3 4.05-1.69 1.46-14.81-10.71-29.4-21.35-40.05q4.63-2.25 2.22-6.87-14.58-27.91-40.33-52.12-7.74-7.28-13.91-10.98-12.15-7.28-28.1-8.03c-5.21-.24-10.8.34-15.97 1.16q-32.7 5.21-63.08 13.85-3.38.96-6.74 1.45-1.2.18-1.86 2.85zm-462.72-30.5q.46.3.61.77.16.48-.25.77-8.59 5.93-16.17 12.28-.97.82-1.77 1.89-.29.39-.34.87-.09 1.02-1.88 1.06l-10.18 1.5 7.68-16.59 22.3-2.55z"/><g fill="#151414"><path d="M1163.69 373.85q-3.96.02-5.39-4.13-3.8-11.08-7.95-22.06-.21-.55-.21-1.33 0-.82-.23-1.36 2.28-.97 1.3-4.98-.71-2.91-3.2-6.38-5.14-7.18-9.73-14.79-12.62-20.91-31.04-36.54-6.61-5.61-14.28-11.3c-2.16-1.61-5.45-4.96-4.73-7.89q.15-.61.75-.41 2.81.92 5.5 2.47 7.14 4.14 12.18 8.7 10.81 9.75 22.31 21.3 13.37 13.43 21.47 28.21.84 1.54 2.25 2.86 1.43 1.34 1.19-.61c-.89-7.25-1.53-14.68-5.1-21.23q-9.19-16.88-23.66-31.19c-7.07-6.99-15.4-12.77-23.26-18.99q-14.15-11.2-27.47-24.08-1.41-1.37.33-2.27.41-.21.89-.18 2.49.15 4.36 1.51c11.87 8.68 24.32 17.11 35.52 26.24q17.97 14.65 34.74 34.53 2.61 3.09 2.6-.96-.01-3.91-2.42-7.4-8.23-11.96-19-25.1-7.44-9.07-13.72-14.12c-5.61-4.51-9.74-10.42-15.69-14.57-10.01-7.01-18.55-15.49-27.01-24.35q-.65-.68-.08-1.43 1.65-2.17 3.85-.74 9.52 6.16 17.8 12.9c5.39 4.39 11.56 7.88 16.97 12.03q24.16 18.54 42.01 43.87a.62.62 0 0 0 1.11-.2c.85-3.27.41-7.25-1.27-10.28-6.34-11.37-14.57-21.07-25.27-29.99q-7.15-5.96-14.83-13.58c-10.15-10.08-22.81-17.63-33.87-25.76q-11.18-8.22-22.76-16.01c-3.16-2.12-6.88-5.56-6.06-9.82a1.24 1.23-63 0 1 2.06-.67c2.77 2.62 5.54 5.8 9.37 6.96 2.46.75 4.63 1.66 6.89 2.97q27.7 16.06 51.44 35.99 19.08 16.01 32.75 34.21.81 1.07 2.09 1.27.62.1.54-.52-.93-7.4-4.58-11.92c-4.8-5.95-9.6-11.86-14.65-17.32q-5.03-5.43-9.61-10.54-7.77-8.68-22.39-18.61-13.68-9.3-26.43-18.21c-6.02-4.22-12.46-7.46-18.24-12.02q-1.43-1.13-3.14-1.95c-3.63-1.75-6.55-3.64-8.28-7.44a1.1 1.09 72.7 0 1 .8-1.53q2.62-.47 4.76.18c3.02.91 4.67 4.16 7.47 5.39q9.08 3.99 16.26 8.34 12.71 7.71 28.92 18.02c12.29 7.81 23.69 17.94 32.8 27.85q5.13 5.59 12.33 16.89c1.52 2.37 2.67 4.85 3.5 7.44q.4 1.24 1.69 1.06.36-.05.47-.36.45-1.27-.04-2.48-7.07-17.49-18.85-31.32c-5.33-6.26-11.71-11.98-17.82-17.43-8.04-7.17-16.16-12.68-26.35-18.57q-22.62-13.1-31.67-17.81-10.82-5.63-27.04-11.55-1.88-.59-3.92-1.39-17.65-6.89-34.34-13-3.3-1.21-7.43-2.43-3.55-1.04-7.52-2.18-24.75-7.14-45.69-13.29-.83-.24-1.14-.69.73-.24.64-2.37-.02-.5.44-.69 2.19-.85 4.59-.57 8.29.96 17.44 1.84 5.89.56 12.44 4.63c2.41 1.5 4.6 2.15 7.29 2.84 2.83.73 4.96 2.62 7.72 3.28 5.46 1.29 11.11 2.46 16.32 4.31q9.51 3.38 19.28 4.21 3.28.28 6.47 1.03 4.6 1.09 6.21 1.79c13.32 5.76 27.07 12.06 40.09 18.97q21.42 11.38 40.1 20.1c8.57 4 13.87 10.21 20.21 16.72q6.09 6.27 16.12 14.35 7.78 6.27 13.39 15.26 1.91 3.05 2.89 4.43c1.69 2.38 4.23 5.07 4.31 8.28q.45 18.69-.67 36.68c-.33 5.17-1.44 10.17-1.65 15.43-.29 7.19-2.06 14.3-2.58 21.71-.6 8.65-1.72 17.26-1.66 26 .06 9.97-.06 19.34-1.74 29.57q-1.73 10.52-1.24 22.09c.08 2.03-.19 4.06-.32 6.18zM928.61 541.99q12.05 0 16.64.55c7.89.96 15.92 1.69 23.64 2.73q19.01 2.56 38.23 4.56 5.5 1.4 11.08 2.78 5.47 1.36 11.18 2.16 48.37 6.75 95.86 14.23c59.22 9.32 114.08 21.75 168.71 41.42q7.49 2.7 14.58 6.1c9.43 4.53 19.27 10.01 26.96 16.66 3.39 2.93 6.82 6.74 7 11.17a1.22 1.22 0 0 1-2.01.98q-10.4-8.84-21.2-14.64-6.9-3.7-18.73-8.47-38.4-15.46-74.6-23.68c-35.07-7.96-65.98-14.79-100.05-20.79q-65.14-11.46-128.32-23.71c-4.55-.88-9.15-1.31-13.63-2.43q-2.71-.67-5.37-.97c-6.38-.72-12.62-2.1-19.11-2.48q-15.26-.89-28.46-3.75-2.06-.44-2.4-2.42z"/><path d="M1380.48 642.99q2.55 1.84 4.18 4.48 2.57 4.17 2.61 4.24c3.05 4.15 6.76 7.35 5.49 13.28q-1.73 8.08-6.92 14.43c-7.12 8.73-15.72 15.6-25.24 21.46q-6.82 4.19-13.06 7.92-18.01 10.77-37.76 17.83c-6.2 2.22-12.06 4.62-18.1 7.05q-3.76 1.5-7.45 2.58-22.77 6.66-38.02 10.43-3.52.87-9.2 1.18-4.66.26-9.76 1.16c-1.73.31-2.92 1.07-3.71 2.66q-1.9 3.85-2.26 5.46-.8 3.69-1.92 7.47-.66 2.25-2.95 2.25c-6.82-13.54-11.3-29.24-13.91-44.04-.48-2.73-1.25-5.16-2.92-7.36-3.85-5.06-9.37-10.51-10.75-16.92q-1.39-6.49-2.67-13.62c-1.03-5.75-3.63-11.63-8.88-15.39q-3.33-2.39-6.36-4.66-11.24-8.41-15.62-21.76-.28-.85-.77-1.6-1.2-1.7-4.03-4.28c-12.72-11.62-25.26-19.93-42.75-22.11q-50.57-6.28-101.81-12.26-10.09-1.18-19.82-2.56-29.75-4.23-57.64-7.99-18.91-2.55-33.01-3.24-24.59-1.21-47.75-2.24-10.64-.47-20.38-.72c-41.25-1.07-80.25-2.58-121.83-2.26q-9.62.08-19.99.75-40.4 2.63-81.53 3.88c-31.52.96-63.65 2.39-84.99 2.74q-33.91.56-63.78 7.21l-74.18 8.77-22.3 2.55q-20.05 2.39-39.99 4.96c-7.8 1-12.69 6.51-15.98 13.2a1.41 1.41 0 0 0 1.24 2.03q4.45.07 9-.33 19.63-1.73 38.05-3.27l10.18-1.5q28.48 2.35 56.51 7.13 12.62 2.15 24.16 5.08 20.21 5.13 41.02 15.72 22.82 11.61 36.8 21.25 5.68 3.92 13.66 12.1 6.06 9.2 8.72 20.62.55 2.34.54 4.8a.72.72 0 0 1-.69.71q-3.33.15-5.62-2.3-6.64-7.1-14.07-14.86-6.11-6.39-11.58-10.11-26.23-17.86-55.74-28.71c-12.37-4.55-25.66-7.83-38.74-10.29q-22.76-4.28-46.96-6.82-5.85-.62-10.42.19-8.54 1.51-16.31 2.69c-6.54.99-13.59.92-20.36 1.58q-14.61 1.42-26.79 8.73-11.33 6.8-22.74 13.83-19.48 12.01-27.25 33.91.12-1.04-.93-1.22-.95-.17-1.94-.45-.45-.12-.63-.56-.25-.6-1.16-.52l3.21-10.68a2.41 2.4 15.8 0 0-1.69-3.01c-5.76-1.54-11.92-2.29-17.85-3.42q-26.33-5.04-50.68-14.23c-8.5-3.21-18.55-7.75-25.47-13.52q-4.26-3.55-4.4-10.31-.18-8.03-.1-16.49c.03-3.02.36-6.36 2.32-8.72q3.7-4.46 9.08-6.11c16.1-4.96 33.22-8.18 49.96-11.17q29.78-5.31 58.11-8.06 15.84-1.53 41.68-2.95c6.79-.37 13.49-1.06 20.34-1.48q19.61-1.2 38.79-2.63c16.49-1.23 33.16-3.44 49.55-5.57q10.25-1.33 19.89-2.12 44.87-3.71 77.28-7 17.42-1.78 35.28-3.62 22.84-2.36 45.73-3.44 13.24-.63 19.98-1.07 42.38-2.79 90.52-6 7.74-.52 30.25-1.12 9.73-.26 20-.25 48.25.03 99.51.68 46.67.59 90.98 4.23 21.72 1.78 48.25 6.02 60.5 9.68 112.88 17.86 9.61 1.51 19.8 2.81 19.15 2.44 37.3 5.38 9.8 1.58 20.76 4.18 20.66 4.91 41.26 9.64 7.8 1.79 14.95 4.06 16.73 5.31 38.83 12.73c13.49 4.53 26.63 10.6 39.23 17.02q4.14 2.12 8.18 5.22 8.38 6.43 16.24 13.53 1.46 1.32 1.01 3.23-.13.54-.63.78-1.6.77-3.07-.04c-5.92-3.23-11.42-7-17.21-10.09-14.62-7.82-27.84-13.37-42.36-19.15-4.78-1.89-9.54-4.31-14.18-6.8-6.44-3.45-13.57-4.14-21.42-3.73a.9.9 0 0 0-.8 1.22q1.49 3.93 2.52 7.36c1.22 4.02 3.02 6.07 6.98 6.94q48.98 10.76 92.51 35.75c3.61 2.07 6.86 6.9 5.23 11.15a1.52 1.51-64.4 0 1-2.18.77q-40.21-23.39-84.53-36.39a1.07 1.06-2.1 0 0-1.3 1.39q3.34 8.92 11.71 12.11 20.58 7.83 43.93 17.83 9.55 4.08 18.81 9.25 1.08.61 1.56 1.7a1.74 1.74 0 0 1-.58 2.11q-2.94 2.12-6.23.9-21.84-8.09-41.8-16.07-6.11-2.44-17.46-5.23-3.91-.96-3.4 3.04l.05.42q.5 3.93 4.29 5.1c12.18 3.77 23.44 7.38 34.53 12.61 6.67 3.14 12.75 4.71 19.92 5.33 7.32.64 11.87-.65 17.93-5.39 12.44-9.73 24.5-18.89 31.3-33.72 2.36-5.13 3.47-11.36 4.68-17.13zM247.8 658.51q-4.01-9.09-12.26-9.33c-2.78-.08-9.87 1.12-11.39 3.73a.53.51-68.2 0 0 .32.77q11.63 2.83 21.69 5.61.61.17 1.24.03.69-.16.4-.81zm1.374 16.907a19.87 3.82 9.2 0 0-19.003-6.948 19.87 3.82 9.2 0 0-20.225.594 19.87 3.82 9.2 0 0 19.003 6.948 19.87 3.82 9.2 0 0 20.225-.594zM1265.3 692.52q1.03 7.08 8 9.9 10.36 4.19 24.41 9.18 3.86 1.37 8.25-.06 1.5-.48 3.07-1.63 2.93-2.13-.46-3.42-20.97-8-41.35-15.63-1.24-.46-1.78.69a1.67 1.64 53.8 0 0-.14.97zm15.042 26.265a14.52 2.67 19.2 0 0-12.834-7.296 14.52 2.67 19.2 0 0-14.59-2.254 14.52 2.67 19.2 0 0 12.834 7.297 14.52 2.67 19.2 0 0 14.59 2.253zm-18.816 4.84a.73.73 0 0 0-.735-.725l-17.26.12a.73.73 0 0 0-.724.735l.007.98a.73.73 0 0 0 .735.725l17.26-.12a.73.73 0 0 0 .724-.735l-.007-.98zm-44.996 1.945q-2.19-.71-4.62-1.45a1.08 1.07 13.2 0 0-1.38.85c-.88 5.17 2.28 8.97 7.76 7.94q8.31-1.57 16.21-2.5a1.38 1.37-69.1 0 0 .77-.35q.99-.87.63-1.71a1.08 1.08 0 0 0-1.09-.65q-9.26.78-18.28-2.13zm159.41-94.27q-7.86-8.71-12.76-13.48-5.35-5.21-12.88-9.28-20.27-10.97-40.21-22.99 3.4-1.72 5.41-1.18 4.68 1.26 10.31 1.97c13.75 1.72 26.18 8.99 37.25 16.96q5.88 4.23 10.46 9.05c2.38 2.5 5.67 7.47 5.18 11.23q-.3 2.24-.98 4.4-.46 1.47-1.78 3.32zM352.13 1244.91l1.06-2.67q.18-.45.12-.93c-.14-1.14-.57-2.02-.38-3.17q.52-3.14 1.46-6.2.12-.37.49-.47.14-.04.23-.17.09-.12.08-.27-.02-.77-.95-1.02 19.4.54 38.76 1.38 19.4.85 85.01 1.08c23.55.08 47.23-.57 70.47-.87q9.22-.12 20.01-.56c21.21-.85 43.27-1.26 65-2.35 16.32-.81 33.03-1.35 49.3-2.31q40.49-2.4 68.76-3.45 32.75-1.21 71-1.2c12.08.01 24.06 1.04 36.21 1.08q52.89.14 103.77-3.08 20.08-1.27 43.14-5.27c15.09-2.62 28.47-7.28 43.14-12.91q15.34-5.88 30.16-11.57c10.57-4.05 12.52-15.22 10.94-25.66-.36-2.42-2.21-3.12-4.48-3.1-83.68.95-168 1.27-252.18 2.39q-68.17.9-201.5 1.72-9.48.06-20 .22c-80.51 1.22-163.62 2.04-245.7 2.17q5.01-2.58 2.69-6.37-.27-.44-.78-.51-2.01-.29-2.29 1.65-.09.64-.73.64h-1.18a.65.63-18.2 0 1-.51-.25q-.22-.28-.08-.51.22-.37.01-.74-.75-1.29-2.69-1.25 4.75-.49 9.51-.8c26.68-1.74 50.83-3.32 80-3.62 21.05-.21 41.85-.25 62.74-.72q58.35-1.33 141.01-2.22c34.5-.38 69.36-.44 104.26-.99 29.7-.47 59.11-.64 88.5-1.3q126.95-2.82 231.24-3.74 4.86-.04 9.5-.62c1.96-.25 3.24-1.9 3.71-3.68q3.3-12.47-4.55-23.27c-5.13-7.07-9.78-6.21-17.29-6.07q-83.08 1.61-166.16-.41-.83-2.07.44-3.38 1.18-1.23 1.23-1.29 2.6-3.62 4.33-7.59 2.61-.09 4.54-.12 83.83-1.56 160.16.26 9.74.23 16.27 5.98 7.21 6.34 13.4 12.72c5.06 5.22 5.64 11.82 4.79 18.95-.89 7.45.5 16.1-.78 23.03q-5.11 27.79-27.67 42.32-5.22 3.37-16.12 7.84-34.43 14.14-72.32 18.85-15.28 1.9-31.38 2.83-29.32 1.71-52.86 1.75c-39.95.07-80.74.26-121.73.02q-30.88-.17-48.99 1.27-26.72 2.14-51.28 4.25-30.52 2.62-70.24 4.04-31.19 1.11-106.5.9-58.13-.16-115.24-.69c-11.8-.11-24.05 1.41-35.76.79q-1.85-.1-5.12-.76z"/></g><path fill="#cd4a91" d="M907.94 354.39c8.77-16.9 25.71-30.23 42.57-39.83q8.27-4.7 17.96-6.36 13.77-2.34 29.23-2.35 18.01 0 35.16 8.56c8.91 4.45 15.53 10.84 21.21 19.24 14.81 21.87 27.11 47.21 26 73.88q-.5 11.97-1.78 27.68c-.52 6.39-1.89 11.1-5.06 17.18q-14.07 26.93-23.63 56.64c-.49 1.52-1.41 2.08-3.04 1.96q-3.82-.27-8.05-.73-37.42-4.06-77.27-8.24c-10.19-1.07-21.19-2.1-31.65-2.63q-26.46-1.35-51.83-2.06a1.16 1.15-88.5 0 1-1.12-1.19q1.16-37.47 8.47-74.3 4.36-22 14.48-48.42 4.3-11.22 8.35-19.03zm-589.29 16.2q8.51-19.85 19.39-33.7c6.67-8.49 14.82-14.27 25.23-18.32q18.43-7.16 38.46-5.58 11.26.89 22.19 2.58c4.2.65 8.31 2.18 12.04 4.17q17.45 9.3 33.95 24.93c11.18 10.6 16.82 25.84 22.13 40.13q11.76 31.62 16.74 66.1 2.99 20.69 3.61 39.74c.22 6.51 1.02 12.74 1.45 19.12.18 2.55.57 6.24-.23 8.77-.65 2.04-4 3.1-5.8 3.29q-16.19 1.63-30.36 4.1c-12.71 2.22-26.72 5.77-39.46 7.25-10.73 1.24-20.68 1.44-30.82 2.9q-24.44 3.51-50.58 7.41-2.53.37-4.25-1.06c-4.07-3.36-6.29-7.25-7.88-12.52q-11.88-39.53-30.48-75.75-1.74-3.38-2.05-7.45-.96-12.52-1.81-24.8-1.88-27.04 8.53-51.31zm-15.05 724.2q14.34 8.44 27.5 18.93 6.45 5.14 10.2 7.04 6.18 3.12 14.51 5.45c16.88 4.7 32.69 8.07 49.41 9.48q6.35.54 17.57.52 15.31-.02 31.21.33c6.2.13 13.39-.43 20.3-1.26q25.33-3.07 49.13-6.17c5.96-.77 12.42-2.22 18.1-3.71q19.7-5.15 39.09-9.86 3.21-.78 6.25-1.7c4.54-1.38 8.12-1.75 12.85-.48 9.91 2.66 20.42.61 29.65 1.93q8.23 1.17 17.53 2.28 5.59.67 9.98 2.13c9.38 3.11 18.27 6.05 27.93 8.07q23.43 4.87 45.92 9.14 19.84 3.77 38.61 3.98 17.35.19 36.11.14 9.27-.03 16.95-.82 21.94-2.27 39.05-6.69 6.93-1.79 15.7-6.94 10.03-5.89 19.89-12.06 1.58-.99 5.92-1.58 83.08 2.02 166.16.41c7.51-.14 12.16-1 17.29 6.07q7.85 10.8 4.55 23.27c-.47 1.78-1.75 3.43-3.71 3.68q-4.64.58-9.5.62-104.29.92-231.24 3.74c-29.39.66-58.8.83-88.5 1.3-34.9.55-69.76.61-104.26.99q-82.66.89-141.01 2.22c-20.89.47-41.69.51-62.74.72-29.17.3-53.32 1.88-80 3.62q-4.76.31-9.51.8-10.11.84-20.19.29-16.96-.93-17.12-.93-19.11-.48-39.68-1.03-13.31-.36-26.36-3.92-23.52-6.43-45.49-16.1-15.94-7.01-19.21-24.68-.37-2.04.56-3.82 1.06-2.03 2.49-3.92 3.95-5.22 8.55-11.2 4.43-5.77 11.7-6.53 29.74-3.1 56.19-.52 2.73.26 5.79 1.07 12.63 3.35 25.88 5.7zm50.64 135.22q-13.18-.3-17.5-.67-3.23-.28-6.18-2.13-15.02-9.39-30.59-18.92-21.9-13.41-30.81-38.61-.45-1.27.9-1.28 16.2-.12 31.12-.11 9.25.01 20.06.24 16.58.34 24.51-.05 15.93-.79 20.3-.76c82.08-.13 165.19-.95 245.7-2.17q10.52-.16 20-.22 133.33-.82 201.5-1.72c84.18-1.12 168.5-1.44 252.18-2.39 2.27-.02 4.12.68 4.48 3.1 1.58 10.44-.37 21.61-10.94 25.66q-14.82 5.69-30.16 11.57c-14.67 5.63-28.05 10.29-43.14 12.91q-23.06 4-43.14 5.27-50.88 3.22-103.77 3.08c-12.15-.04-24.13-1.07-36.21-1.08q-38.25-.01-71 1.2-28.27 1.05-68.76 3.45c-16.27.96-32.98 1.5-49.3 2.31-21.73 1.09-43.79 1.5-65 2.35q-10.79.44-20.01.56c-23.24.3-46.92.95-70.47.87q-65.61-.23-85.01-1.08-19.36-.84-38.76-1.38z"/><g fill="#fefefe"><path d="M429.25 709.97c42.41 6.98 82.01 28.53 110.66 60.52q2.89 3.22 7.94 11.57c7.69 12.69 9.45 31.36 5.55 45.86q-2.17 8.05-7.04 17.09c-10.62 19.66-22.86 36.91-40.23 50.37q-19 14.73-42.54 20.17c-16.88 3.91-33.37 7.85-50.33 9.66q-16.74 1.79-34.77-.38-4.73-.57-9.99-1.14-21.83-2.4-43.52-4.54-11.94-1.18-22.68-2.34-8.35-.9-15.55-3.24-12.5-4.08-21.73-8.61c-22.43-11-41.42-32.06-55.54-53.1-11.75-17.51-15.17-38.11-9.15-58.59q1.9-6.46 5.04-13.04 11.41-23.93 33.02-47.89 7.58-8.4 16.41-11.93c10.65-4.26 22.25-8.64 33.68-11.44q5.11-1.26 12.71-2.12 64.56-7.32 128.06 3.12zM290.62 842.2c17.7 28.61 53.08 41.88 84.88 48.49 9.05 1.88 18.92 2.37 27.69.83 20.59-3.6 42.38-14.74 56.33-30.42 12.08-13.58 18.34-31.06 15.3-48.8q-4.05-23.66-17.5-40.83-21.39-27.29-55.54-34.8-28.61-6.29-57.64.08-32.38 7.11-55.61 31.95c-5.83 6.23-10.86 13.07-12.31 21.85q-.89 5.33.23 12.2 3.65 22.44 14.17 39.45zm620.69-118.49c22.71 6.03 42.61 15.78 62.94 27.24q25.18 14.18 43.9 36.03c7.96 9.28 14.92 21.84 15.98 34.21 3.29 38.42-23.64 72.12-53.11 93.61-4.19 3.06-8.83 5.47-13.93 6.79-17.66 4.59-34.47 8.51-52.74 8.86-8.37.15-17.14 1.81-25.76 2.51-8.83.71-17.99 1.67-26.71 1.95q-25.18.83-50.85.06c-7.79-.24-15.69-1.25-23.08-2.34q-17.32-2.54-33.65-10.26-17.37-8.2-34.72-16.45-7.81-3.71-17.29-9.98c-11.42-7.55-19.99-16.55-28.48-27.72-8.79-11.57-15.44-22.58-17.06-36.54q-.84-7.24 1.1-16.16 2.86-13.19 10.12-25.67 10.45-17.96 27.29-35.35 11.47-11.85 23.02-17.05 19.9-8.96 40.45-12.96 11.72-2.29 22.91-4.88 13.31-3.07 25.99-3.32c19.25-.37 37.89-.27 56.8 1.52q13.84 1.32 27.55 2.56 10.2.92 19.33 3.34zM814.34 906.6q23.64 9.21 48.66 7.22c8.11-.65 15.82-2.5 23.18-5.4q18.65-7.33 32.64-17.18 24.57-17.32 27.06-46.27c.43-5.01.33-10.73-1.35-15.35q-5.37-14.81-14.43-31.26-6.84-12.41-16.98-19.7-15.42-11.09-32.15-18.21-13.48-5.73-29.89-6.85c-16.11-1.11-30.36-.24-44.55 5.16q-11.62 4.43-20.14 8.98c-17.43 9.31-39.16 28.82-43.65 49.33-3.22 14.69.55 27.57 9.36 40.57q17.55 25.91 43.59 40.09 10.35 5.64 18.65 8.87z"/><path d="M349.58 770.98c11.98 5.61 21.34 15.88 25.22 28.76 1.14 3.8-.81 6.33-3.08 9.04-8.7 10.37-21.43 14.4-34.35 10.37-9.8-3.05-18.22-10.9-21.86-20.73-7.34-19.83 17.15-35.38 34.07-27.44z"/><ellipse rx="30.39" ry="25.3" transform="rotate(38.7 -745.169 1566.058)"/></g><g fill="#250919"><path d="M843.76 637.71q4.71 1.44 8.49 1.96 9.18 1.26 17.62 2.65c11.26 1.86 21.68 2.88 32.49 4.53q9.84 1.5 20.94 4.41 8.93 2.35 18.92 6.52 36.96 15.39 69.31 38.62c10.64 10.65 22.81 25.24 21.35 40.05-.2 1.99-2.57 2.93-4.05 1.69q-2.18-1.83-4.07-4.07-9.57-11.38-18.34-21.35-13.17-14.96-30.99-23.54-18.4-8.85-36.66-17.6c-12.74-6.1-26.15-8.84-40.52-11.34q-22.45-3.91-41.83-6.33c-21.82-2.73-42.79-2.33-65.51.74q-7.16.97-13.34 3.23-27.11 9.91-47.3 32.33-3.23 12.3-5.62 25.86-.25 1.42-.17 2.78a.77.76 85.7 0 0 .84.73q2.74-.27 5.3-.9 22.1-5.43 42.85-9.24 18.38-3.36 35.82-3.9c18.46-.57 37.21-.51 55.49.16q9.04.33 19.9 1.73 14.45 1.86 29.06 3.96 9.79 2.06 17.26 4.14 3.6 1 7.06 2.47 30.96 13.14 56.31 28.68 30.75 18.85 46.5 49.19 6.83 13.18 6.1 28.34-.54 11.1-1.83 19.3-3.92 24.87-17.99 43.64-4.67 6.25-12.62 14.96-13.05 14.31-28.23 24.76-10.84 7.46-24.08 9.96-18.2 3.43-28.47 4.44-15.93 1.57-23.04 2.81-10.65 0-22.46.87-11.5.85-46.5 2.86-30.87 1.77-70.88-5.37c-4.07-.73-8.62-2.33-12.22-4.07q-5.85-2.83-18.93-9.84c-26.27-8.12-52.04-22.7-69.79-43.85q-12.09-14.41-21-29.26c-1.25-2.08-1.85-4.34-2.02-6.75q-1.36-18.88-1.88-34.67c-.12-3.58.72-7.32 2.2-10.56 13.5-29.63 31.67-55.51 58.13-74.67 3.82-2.77 5.26-5.94 5.85-10.73q1.56-12.69 3.24-24.8c1.26-9.05 6.47-14.1 12.55-20.23q29.02-29.29 67.52-33.79 16.36-1.92 44.97-2.35 1.32-.02 4.27.84zm130.49 113.24c-20.33-11.46-40.23-21.21-62.94-27.24q-9.13-2.42-19.33-3.34-13.71-1.24-27.55-2.56c-18.91-1.79-37.55-1.89-56.8-1.52q-12.68.25-25.99 3.32-11.19 2.59-22.91 4.88-20.55 4-40.45 12.96-11.55 5.2-23.02 17.05-16.84 17.39-27.29 35.35-7.26 12.48-10.12 25.67-1.94 8.92-1.1 16.16c1.62 13.96 8.27 24.97 17.06 36.54 8.49 11.17 17.06 20.17 28.48 27.72q9.48 6.27 17.29 9.98 17.35 8.25 34.72 16.45 16.33 7.72 33.65 10.26c7.39 1.09 15.29 2.1 23.08 2.34q25.67.77 50.85-.06c8.72-.28 17.88-1.24 26.71-1.95 8.62-.7 17.39-2.36 25.76-2.51 18.27-.35 35.08-4.27 52.74-8.86 5.1-1.32 9.74-3.73 13.93-6.79 29.47-21.49 56.4-55.19 53.11-93.61-1.06-12.37-8.02-24.93-15.98-34.21q-18.72-21.85-43.9-36.03zm-463.73-24.18q12.61 9.43 19.15 14.82 9.19 7.58 19.03 19.02c6.63 7.7 13.51 15.55 16.01 25.38q5.03 19.73 3.3 38.48c-.51 5.5-2.9 11.7-5.49 17.07q-4.61 9.58-9.47 19.9-4.21 8.95-7.47 13.64-4.14 5.93-10.06 11.94-6.37 6.47-11.29 10.8-6.99 5.85-14.1 11.29c-10.44 7.99-23.87 13.15-36.39 16.45q-20.38 5.37-37.1 8.36-17.84 3.19-37.31 2.49-21.27-.76-43.16-2.14c-6.44-.4-13.21-1.25-19.83-1.79q-4.86-.4-14.62-1.67-7.8-1.02-16.48-1.25-3.81-1-8.64-1.99-5.06-1.03-8.57-2.2-4.34-1.46-8.86-3.18-15.05-7.97-32.12-11.75-1.16-.26-1.55.14-.51.52-.26 1.94-5.89-2.05-8.74-1.45-2.55.54-6.04.85 1.56-11.07-5.09-18.75-12.5-14.43-20.96-27.29-6.76-10.27-11.46-25.31-6.01-19.22-6.24-41.44c-.11-10.65 5.53-22.71 10.82-31.78q9.41-16.11 20.63-30.67 3.61-4.67 19.58-20.49l9.27-7.9q6.92-.92 13.58-4.88c7.97-2.79 16.42-5.95 24.29-7.12 22-3.3 39.45-5.95 59.33-6.43q10.3-.25 55.35 2.22 4.97.27 17.94 2.72c5.72 1.09 12.89.94 18.35 1.77q26.99 4.11 49.91 16.66 12.26 6.72 24.76 13.54zm29.39 43.72c-28.65-31.99-68.25-53.54-110.66-60.52q-63.5-10.44-128.06-3.12-7.6.86-12.71 2.12c-11.43 2.8-23.03 7.18-33.68 11.44q-8.83 3.53-16.41 11.93-21.61 23.96-33.02 47.89-3.14 6.58-5.04 13.04c-6.02 20.48-2.6 41.08 9.15 58.59 14.12 21.04 33.11 42.1 55.54 53.1q9.23 4.53 21.73 8.61 7.2 2.34 15.55 3.24 10.74 1.16 22.68 2.34 21.69 2.14 43.52 4.54 5.26.57 9.99 1.14 18.03 2.17 34.77.38c16.96-1.81 33.45-5.75 50.33-9.66q23.54-5.44 42.54-20.17c17.37-13.46 29.61-30.71 40.23-50.37q4.87-9.04 7.04-17.09c3.9-14.5 2.14-33.17-5.55-45.86q-5.05-8.35-7.94-11.57z"/><path d="M375.5 890.69c-31.8-6.61-67.18-19.88-84.88-48.49q-10.52-17.01-14.17-39.45-1.12-6.87-.23-12.2c1.45-8.78 6.48-15.62 12.31-21.85q23.23-24.84 55.61-31.95 29.03-6.37 57.64-.08 34.15 7.51 55.54 34.8 13.45 17.17 17.5 40.83c3.04 17.74-3.22 35.22-15.3 48.8-13.95 15.68-35.74 26.82-56.33 30.42-8.77 1.54-18.64 1.05-27.69-.83zm-25.92-119.71c-16.92-7.94-41.41 7.61-34.07 27.44 3.64 9.83 12.06 17.68 21.86 20.73 12.92 4.03 25.65 0 34.35-10.37 2.27-2.71 4.22-5.24 3.08-9.04-3.88-12.88-13.24-23.15-25.22-28.76zm446.11 126.75q-26.04-14.18-43.59-40.09c-8.81-13-12.58-25.88-9.36-40.57 4.49-20.51 26.22-40.02 43.65-49.33q8.52-4.55 20.14-8.98c14.19-5.4 28.44-6.27 44.55-5.16q16.41 1.12 29.89 6.85 16.73 7.12 32.15 18.21 10.14 7.29 16.98 19.7 9.06 16.45 14.43 31.26c1.68 4.62 1.78 10.34 1.35 15.35q-2.49 28.95-27.06 46.27-13.99 9.85-32.64 17.18c-7.36 2.9-15.07 4.75-23.18 5.4q-25.02 1.99-48.66-7.22-8.3-3.23-18.65-8.87zm43.577-68.959a30.39 25.3 38.7 0 0-7.898-38.746 30.39 25.3 38.7 0 0-39.536.744 30.39 25.3 38.7 0 0 7.898 38.746 30.39 25.3 38.7 0 0 39.536-.744zM985.75 1417.48q.38.92 1.12 1.51.39.31.45.8.14 1.12.55 2.2.25.68-.93 2.27-46.26 8.67-93.05 15.56-9.52 1.4-19.85 2.32-34.54 3.1-69.08 6.24c-9.86-.8-20.52.23-30.97.09q-9.1-.13-18.22.22c-14.67-.98-29.48-2.19-44-2.8q-19.89-.83-39.77-1.61-2.89-.11-13.35-1.83-2.61-1.63-4.91-5.45-1.33-2.2-4.89-2.95-.48-.1-.7-.53-.69-1.38-2.67-1.58 12.99-.94 16.27-.93 28.81.07 56.22 1.27 3.17.14 6.02.66 2.83.52 6.02.81 12.33 1.1 23.49 1.96 2.97.23 9.29-.15c6.03.55 12.14 1.94 18.21 1.36 17.95-1.72 35.01-1.66 54.09-1.73q13.56-.05 25.86-1.96c21.92-3.41 43.95-3 65.72-6.01 21.12-2.92 41.93-7.03 59.08-9.74z"/></g><path fill="#1988b3" d="M1156.93 395.49q3.53 11.66 4.29 15.51 1.81 9.13-.52 21.24-8.31 43.16-22.42 78.26-1.58 3.94-3.19 12.68l-72.61-10.56q-.52-.07-.64-.59-.3-1.37.15-2.69 7.75-22.33 13.95-34.47 5.5-10.75 7.97-17.13 2.1-5.42 3.59-12.69 2.6-12.74 4.11-22.29c1.96-12.5-.73-24.37-2.87-36.85-3.51-20.47-11.35-39.62-22.73-57.15-15.74-24.25-45.45-37.93-74.72-34.76q-11.32 1.23-23.97 3.75c-7.87 1.56-15.69 3.55-23.12 6.81-10.66 4.69-20.57 10.93-29.96 17.81q-14.34-9.39-19.81-24.61-3.64-10.13-3.42-23.39.19-.28 1.33-.8 24-10.99 50.24-15.5c14.49-2.49 28.14-2.62 42.63-1.14q16.76 1.72 32.33 4.6 20.11 3.73 40.6 11.65 9.93 3.84 17.46 8.47c12.56 7.73 23.06 17.38 33.71 27.72 17.65 17.14 33.26 37.71 40.42 61.39q3.31 10.92 5.97 21.5.18.71 1.23 3.23zM500.17 282.91q-.74 6.29-1.74 12.07-3 17.54-16.05 29.09-1.51 1.33-3.54 2.46-1.92 1.06-3.79 2.05-14.87-9.58-27.61-15.76-4.92-2.39-11.21-4.19c-12.38-3.54-26.06-6.61-38.55-8.15-17.58-2.17-34.95 3.04-50.09 12.15q-16.89 10.16-27.19 28.3-15.02 26.47-21.07 60.79-2.76 15.67 0 32.37 1.85 11.16 4.19 22.07c1.17 5.44 3.5 10.83 6.23 15.71q6.25 11.16 8.48 17.48 8.6 24.37 19.84 52.64 1.02 2.58.26 4.89-.15.46-.59.68-1.3.67-2.91.9-28.05 3.92-56.07.75-4.28-.48-16.05-.58-14.93-33.04-24.52-68.03-4.8-17.52-7.38-36.87c-.82-6.21-1.08-12.35-.51-18.51q2.21-24.05 8.64-43.58 12.46-37.86 39.67-63.25 21-19.6 40.96-31.64 16.62-10.02 35.93-14.98 10.36-2.65 21.12-5.05 15.53-1.38 31.4-3.15 21.45-2.38 39.48 1.46 21.8 4.64 37.76 9.44 8.47 2.55 14.91 8.44zm-44.95 315.53q-1.1.61-.17 1.36a1.26 1.24-26.4 0 0 .88.29q3.24-.24 6.1.52c10.96 2.89 20.38 7.17 28.53 15.16q14.58 14.3 29.41 34.37 5.54 7.49 8.56 12.94 3.13 5.61 5.07 14.55 1.09 4.98-.21 8.5-7.98-8.18-13.66-12.1-13.98-9.64-36.8-21.25-20.81-10.59-41.02-15.72-11.54-2.93-24.16-5.08-28.03-4.78-56.51-7.13 1.79-.04 1.88-1.06.05-.48.34-.87.8-1.07 1.77-1.89 7.58-6.35 16.17-12.28.41-.29.25-.77-.15-.47-.61-.77l74.18-8.77zm-96.48 11.32-7.68 16.59q-18.42 1.54-38.05 3.27-4.55.4-9 .33a1.41 1.41 0 0 1-1.24-2.03c3.29-6.69 8.18-12.2 15.98-13.2q19.94-2.57 39.99-4.96zm652.79 86.64q-32.35-23.23-69.31-38.62-9.99-4.17-18.92-6.52-11.1-2.91-20.94-4.41c-10.81-1.65-21.23-2.67-32.49-4.53q-8.44-1.39-17.62-2.65-3.78-.52-8.49-1.96.66-2.67 1.86-2.85 3.36-.49 6.74-1.45 30.38-8.64 63.08-13.85c5.17-.82 10.76-1.4 15.97-1.16q15.95.75 28.1 8.03 6.17 3.7 13.91 10.98 25.75 24.21 40.33 52.12 2.41 4.62-2.22 6.87zm143-54.88q.49.75.77 1.6 4.38 13.35 15.62 21.76 3.03 2.27 6.36 4.66c5.25 3.76 7.85 9.64 8.88 15.39q1.28 7.13 2.67 13.62c1.38 6.41 6.9 11.86 10.75 16.92 1.67 2.2 2.44 4.63 2.92 7.36 2.61 14.8 7.09 30.5 13.91 44.04 3.26 6.25 4.59 13.6 5.91 20.25q1.61 8.1 5.83 32.71 2.69 15.74 6.32 33.42 2.93 14.23 4.69 33.49 2.56 28.06 3.56 71.27.21 9.43 0 19.91-.99 47.78-1.7 94.59c-.34 22.53-6.36 44.85-15.05 65.41q-2.52 5.98-5.18 12.32-16.37 39.01-33.21 67.58-16.01 27.18-31.65 52.17c-6.67 10.66-13.52 20.92-21.38 30.95q-11.67 14.9-23.35 29.97c-16.47 21.24-34.63 40.91-54.66 59.28q-11.32 10.38-28.07 16.22-12 4.18-21.26 6.91-4.29 1.26-10.3 2.21-5.58.89-11.16 1.95c-17.15 2.71-37.96 6.82-59.08 9.74-21.77 3.01-43.8 2.6-65.72 6.01q-12.3 1.91-25.86 1.96c-19.08.07-36.14.01-54.09 1.73-6.07.58-12.18-.81-18.21-1.36q.75-.03 1.35-.36.42-.24.16-.65-.08-.12-.12-.27a.45.44-28.8 0 1 .13-.43q2.12-2.08 4.43-2.57 11.27-2.39 20.15-4.96 10.25-2.97 20.64-8.03 19.75-9.6 36.96-17.8 23.73-11.31 48.6-24.62 17.62-9.43 28.57-16.42 26.1-16.65 52.3-34.37 13.86-9.38 26.94-20.83 34.02-29.81 64.69-62.5c11.76-12.53 21.93-27.99 32.25-42.11q10.74-14.69 25-31.11 4.18-4.81 6.03-12.85c2.14-9.31 4.33-18.33 7.71-27.44q4.28-11.56 8.7-23.4 2.77-7.43 4.39-16.6 3.33-18.79 3.47-37.97.14-18.67.01-37.76-.07-10.15-1-18.42c-2.36-20.78-3.36-42.02-5.28-63.07q-3.03-33.24-6.46-57.79-3.31-23.74-6.54-47.49-1.59-11.73-2.38-23.95-.91-14.26-1.39-28.02c-.7-20.14-.52-39.92-.54-60.53q-.01-9.39 1.52-19.18 1.32-8.44.97-18.81c-.27-8.4.78-16.18 2.47-24.21q2.2-10.46 12.76-10.12 2.46.08 4.5 1.39.42.27.74-.1.23-.27.01-.69zm-644.01 85.25q-12.5-6.82-24.76-13.54-22.92-12.55-49.91-16.66c-5.46-.83-12.63-.68-18.35-1.77q-12.97-2.45-17.94-2.72-45.05-2.47-55.35-2.22c-19.88.48-37.33 3.13-59.33 6.43-7.87 1.17-16.32 4.33-24.29 7.12q.17-9.2 7.21-13.62 10.28-6.45 25.35-11.45 35.59-11.84 76.06-20.75c4.84-1.06 7.94.93 12.28 1.74 6.48 1.21 13.63-.07 20.84 2.02 20.02 5.81 40.5 13.07 57.53 23.36q14.51 8.76 29.03 18.64c6.46 4.39 12.23 10.87 18.37 17.41q2.54 2.71 3.26 6.01zm403.22-15.38q-14.61-2.1-29.06-3.96-10.86-1.4-19.9-1.73c-18.28-.67-37.03-.73-55.49-.16q-17.44.54-35.82 3.9-20.75 3.81-42.85 9.24-2.56.63-5.3.9a.77.76 85.7 0 1-.84-.73q-.08-1.36.17-2.78 2.39-13.56 5.62-25.86 1.64.02 3.28-.36 2.81-.63 3.22-.69 17.76-2.68 35.69-4.01c22.59-1.68 43.4.43 65.68 4.44 13.39 2.41 28.33 3.67 42.31 7.86 4.69 1.41 9.83 2.26 14.79 2.95 5.12.71 10.88 1.84 14.71 5.41q2.52 2.35 3.79 5.58zM524.23 897.82c3.54 6.01 2.31 10.41-1.06 16.13-2.74 4.65-5.42 9.32-9.02 13.33Q503.12 939.6 487 943.65q-3.44.86-10.47 1.73-5.48.67-10.51 1.51-20.07 3.35-40.51 2.79-29.78-.83-49.69-1.18c-9.09-.16-18.46-2.01-27.78-4.23q-9.53-2.27-18.79-3.53-13.74-1.88-24.01-11.18 8.68.23 16.48 1.25 9.76 1.27 14.62 1.67c6.62.54 13.39 1.39 19.83 1.79q21.89 1.38 43.16 2.14 19.47.7 37.31-2.49 16.72-2.99 37.1-8.36c12.52-3.3 25.95-8.46 36.39-16.45q7.11-5.44 14.1-11.29zm-245.06 24.37q1.83 5.21 3.53 10.06 1.2 3.44.99 9.44-.49 13.84-.85 27.23c-.37 13.82 1.37 29.63.25 44.95q-2.16 29.54-3.49 56.33c-.09 1.82-.6 3.52-1.06 5.24q-12.67-.6-25.28-1.82c-6.94-.67-10.01-1.39-9.51-9.36q.87-13.63 1.7-27.84c.63-10.7.89-21.15 1.58-31.69.93-14.1 1.6-28.55 2.14-42.73q.64-16.65-1.16-29.5-1.45-10.38-2.77-19.98-.25-1.42.26-1.94.39-.4 1.55-.14 17.07 3.78 32.12 11.75zm460.55 6.34q13.08 7.01 18.93 9.84c3.6 1.74 8.15 3.34 12.22 4.07q40.01 7.14 70.88 5.37 35-2.01 46.5-2.86 11.81-.87 22.46-.87-9.28 8.78-21.46 10.64c-7.77 1.19-15.45 2.35-23.37 3.08q-22.93 2.12-46.7 3.86c-5.48.4-11.93 1.31-17.8 1.75-19.19 1.45-39.38-8.79-55.07-20.19q-2.55-1.84-4.34-4.43-3.05-4.38-2.25-10.26zm65.24 519.85q-17.55 1.95-22.46 2.01-7.67.11-26.73-1.7 9.12-.35 18.22-.22c10.45.14 21.11-.89 30.97-.09z"/><path fill="#00152a" d="M908.96 1100.68q-1.73 3.97-4.33 7.59-.05.06-1.23 1.29-1.27 1.31-.44 3.38-4.34.59-5.92 1.58-9.86 6.17-19.89 12.06-8.77 5.15-15.7 6.94-17.11 4.42-39.05 6.69-7.68.79-16.95.82-18.76.05-36.11-.14-18.77-.21-38.61-3.98-22.49-4.27-45.92-9.14c-9.66-2.02-18.55-4.96-27.93-8.07q-4.39-1.46-9.98-2.13-9.3-1.11-17.53-2.28c-9.23-1.32-19.74.73-29.65-1.93-4.73-1.27-8.31-.9-12.85.48q-3.04.92-6.25 1.7-19.39 4.71-39.09 9.86c-5.68 1.49-12.14 2.94-18.1 3.71q-23.8 3.1-49.13 6.17c-6.91.83-14.1 1.39-20.3 1.26q-15.9-.35-31.21-.33-11.22.02-17.57-.52c-16.72-1.41-32.53-4.78-49.41-9.48q-8.33-2.33-14.51-5.45-3.75-1.9-10.2-7.04-13.16-10.49-27.5-18.93-1.19-8.07-3.27-14.04-.44-1.25-1.84-1.94.24.08.49-.19.21-.22.23-.52.25-6.93.85-14.72c.69-8.93 2.09-18.08 5.57-25.92 4.28-9.62 13.45-17.14 23.08-20.74q3.8-1.42 10.91-2.67c6.37-1.11 13.06-2.69 19.39-1.14q13.87 3.38 23.36 10.71c4.62 3.56 6.85 8.31 4.97 14.06-1.03 3.13-2.6 7.38-5.15 9.59a2 2 0 0 1-2.87-.26c-5.09-6.33-9.17-11.44-17.22-13.92-8.5-2.61-16.05 3.25-19.36 10.91-2.26 5.25.79 10.05 5.25 12.8 16.65 10.26 34.4 4.38 49.85-4.36q14.15-8.01 28.17-15.92c6.72-3.79 13.65-7.24 20.67-10.22q21.52-9.13 37.02-13.71 15.7-4.64 34.82-3.36c32.34 2.16 62.74 13.52 85.51 36.96q1.47 1.51 2.67-.23c8.1-11.73 19.38-18.22 31.8-24.42q18.07-9.02 38.38-11.45c19.86-2.37 40.09-2.18 57.94 5.1 11.61 4.73 24.25 10.36 35.68 16.08q7.03 3.52 15.49 9.17c13.11 8.76 26.26 17.57 39.44 25.58q14.54 8.83 31.22 5.96 8.01-1.39 12.6-5.68c7.89-7.39 1.31-17.3-6.04-21.24q-6.66-3.57-14.51.39-7.14 3.61-11.38 9.08c-4.95 6.39-8.04-3.63-9.2-6.93-2.01-5.7-.22-9.68 4.33-13.23 8.93-6.96 19.78-11.3 30.84-10.32q6.62.59 15.09 2.65c18.76 4.58 30.79 16.96 33.55 36.78q1.65 11.84 1.95 20.71.13 3.83-1.45 8.28-1.45 4.1-3.47 8.21zm-300.19-5.41a1.29 1.29 0 0 0-1.31.05l-1.92 1.23a1.29 1.29 0 0 0 .05 2.2l3.02 1.75a1.29 1.29 0 0 0 1.53-.17l1.61-1.51a1.29 1.29 0 0 0-.27-2.07l-2.71-1.48z"/><g fill="#4e4e4e"><path d="M1037.64 130.76q16.22 5.92 27.04 11.55 9.05 4.71 31.67 17.81c10.19 5.89 18.31 11.4 26.35 18.57 6.11 5.45 12.49 11.17 17.82 17.43q11.78 13.83 18.85 31.32.49 1.21.04 2.48-.11.31-.47.36-1.29.18-1.69-1.06c-.83-2.59-1.98-5.07-3.5-7.44q-7.2-11.3-12.33-16.89c-9.11-9.91-20.51-20.04-32.8-27.85q-16.21-10.31-28.92-18.02-7.18-4.35-16.26-8.34c-2.8-1.23-4.45-4.48-7.47-5.39q-2.14-.65-4.76-.18a1.1 1.09 72.7 0 0-.8 1.53c1.73 3.8 4.65 5.69 8.28 7.44q1.71.82 3.14 1.95c5.78 4.56 12.22 7.8 18.24 12.02q12.75 8.91 26.43 18.21 14.62 9.93 22.39 18.61 4.58 5.11 9.61 10.54c5.05 5.46 9.85 11.37 14.65 17.32q3.65 4.52 4.58 11.92.08.62-.54.52-1.28-.2-2.09-1.27-13.67-18.2-32.75-34.21-23.74-19.93-51.44-35.99c-2.26-1.31-4.43-2.22-6.89-2.97-3.83-1.16-6.6-4.34-9.37-6.96a1.24 1.23-63 0 0-2.06.67c-.82 4.26 2.9 7.7 6.06 9.82q11.58 7.79 22.76 16.01c11.06 8.13 23.72 15.68 33.87 25.76q7.68 7.62 14.83 13.58c10.7 8.92 18.93 18.62 25.27 29.99 1.68 3.03 2.12 7.01 1.27 10.28a.62.62 0 0 1-1.11.2q-17.85-25.33-42.01-43.87c-5.41-4.15-11.58-7.64-16.97-12.03q-8.28-6.74-17.8-12.9-2.2-1.43-3.85.74-.57.75.08 1.43c8.46 8.86 17 17.34 27.01 24.35 5.95 4.15 10.08 10.06 15.69 14.57q6.28 5.05 13.72 14.12 10.77 13.14 19 25.1 2.41 3.49 2.42 7.4.01 4.05-2.6.96-16.77-19.88-34.74-34.53c-11.2-9.13-23.65-17.56-35.52-26.24q-1.87-1.36-4.36-1.51-.48-.03-.89.18-1.74.9-.33 2.27 13.32 12.88 27.47 24.08c7.86 6.22 16.19 12 23.26 18.99q14.47 14.31 23.66 31.19c3.57 6.55 4.21 13.98 5.1 21.23q.24 1.95-1.19.61-1.41-1.32-2.25-2.86-8.1-14.78-21.47-28.21-11.5-11.55-22.31-21.3-5.04-4.56-12.18-8.7-2.69-1.55-5.5-2.47-.6-.2-.75.41c-.72 2.93 2.57 6.28 4.73 7.89q7.67 5.69 14.28 11.3 18.42 15.63 31.04 36.54 4.59 7.61 9.73 14.79 2.49 3.47 3.2 6.38.98 4.01-1.3 4.98-.82-.62-1.06-1.06-6.64-12.14-12.73-23.58c-3.18-6-6.51-10.3-11.17-14.53q-4.89-4.44-10.01-8.7-14.71-12.23-29.53-24.66-8.41-7.05-18.92-11.44-15.41-6.45-30.6-10.24-.27-7.98.08-11.01c2.88-24.72 4.77-46.49 4.78-70.05q0-19.55-.82-23.83-1.39-7.18-2.29-15.11zm23.76 397.34 126.16 21.86q3.73.45 6.97.85 3.39.43 6.85 1.38 15.6 4.31 41.36 10.85 33.65 8.54 67.35 22.51 19.94 12.02 40.21 22.99 7.53 4.07 12.88 9.28 4.9 4.77 12.76 13.48 1.77 2.8 3.26 5.73 1.43 2.8 1.28 5.96c-1.21 5.77-2.32 12-4.68 17.13-6.8 14.83-18.86 23.99-31.3 33.72-6.06 4.74-10.61 6.03-17.93 5.39-7.17-.62-13.25-2.19-19.92-5.33-11.09-5.23-22.35-8.84-34.53-12.61q-3.79-1.17-4.29-5.1l-.05-.42q-.51-4 3.4-3.04 11.35 2.79 17.46 5.23 19.96 7.98 41.8 16.07 3.29 1.22 6.23-.9a1.74 1.74 0 0 0 .58-2.11q-.48-1.09-1.56-1.7-9.26-5.17-18.81-9.25-23.35-10-43.93-17.83-8.37-3.19-11.71-12.11a1.07 1.06-2.1 0 1 1.3-1.39q44.32 13 84.53 36.39a1.52 1.51-64.4 0 0 2.18-.77c1.63-4.25-1.62-9.08-5.23-11.15q-43.53-24.99-92.51-35.75c-3.96-.87-5.76-2.92-6.98-6.94q-1.03-3.43-2.52-7.36a.9.9 0 0 1 .8-1.22c7.85-.41 14.98.28 21.42 3.73 4.64 2.49 9.4 4.91 14.18 6.8 14.52 5.78 27.74 11.33 42.36 19.15 5.79 3.09 11.29 6.86 17.21 10.09q1.47.81 3.07.04.5-.24.63-.78.45-1.91-1.01-3.23-7.86-7.1-16.24-13.53-4.04-3.1-8.18-5.22c-12.6-6.42-25.74-12.49-39.23-17.02q-22.1-7.42-38.83-12.73-7.15-2.27-14.95-4.06-20.6-4.73-41.26-9.64-10.96-2.6-20.76-4.18-18.15-2.94-37.3-5.38-10.19-1.3-19.8-2.81-52.38-8.18-112.88-17.86-26.53-4.24-48.25-6.02-44.31-3.64-90.98-4.23-51.26-.65-99.51-.68-10.27-.01-20 .25-22.51.6-30.25 1.12-48.14 3.21-90.52 6-6.74.44-19.98 1.07-22.89 1.08-45.73 3.44-17.86 1.84-35.28 3.62-32.41 3.29-77.28 7-9.64.79-19.89 2.12c-16.39 2.13-33.06 4.34-49.55 5.57q-19.18 1.43-38.79 2.63c-6.85.42-13.55 1.11-20.34 1.48q-25.84 1.42-41.68 2.95-28.33 2.75-58.11 8.06c-16.74 2.99-33.86 6.21-49.96 11.17q-5.38 1.65-9.08 6.11c-1.96 2.36-2.29 5.7-2.32 8.72q-.08 8.46.1 16.49.14 6.76 4.4 10.31c6.92 5.77 16.97 10.31 25.47 13.52q24.35 9.19 50.68 14.23c5.93 1.13 12.09 1.88 17.85 3.42a2.41 2.4 15.8 0 1 1.69 3.01l-3.21 10.68c-1.05 1.84-2.31 2.46-4.46 1.79q-7.77-2.43-15.47-4.91-54.66-17.67-100.5-51.08.07-4.51-1.27-8.93c-1.36-4.5-2.27-7.86-2.46-12.02-.58-12.42 10.16-21.25 21.23-25.43q7.82-2.95 18.27-5.6 33.73-8.55 65.75-12.15 23.09-2.6 44.88-6.43c5.55-.98 11.19-1.21 16.88-2.16q2.26 1.54 3.68 1.56 25.31.48 50.19-3.61c15.84-2.6 29.82-4.73 45.41-5.94q16.71-1.29 31.84-2.73c12.8-1.21 25.87-3.24 38.87-5.19 17.37-2.6 34.67-3.55 51.6-3.84 6.15-.1 12.37-.48 18.39-1.31q30.5-4.19 46.35-5.45 23.65-1.88 50.8-.72 11.03.48 21.78-.64 20.38-2.12 38.83-3.5 16.27-1.21 30.9-2.39c11.66-.94 24.92-.43 37.59.58 34.89 2.78 79.08.77 103.45 1.73q34.5 1.37 68.99 2.59 3.32.11 6.37.42.34 1.98 2.4 2.42 13.2 2.86 28.46 3.75c6.49.38 12.73 1.76 19.11 2.48q2.66.3 5.37.97c4.48 1.12 9.08 1.55 13.63 2.43q63.18 12.25 128.32 23.71c34.07 6 64.98 12.83 100.05 20.79q36.2 8.22 74.6 23.68 11.83 4.77 18.73 8.47 10.8 5.8 21.2 14.64a1.22 1.22 0 0 0 2.01-.98c-.18-4.43-3.61-8.24-7-11.17-7.69-6.65-17.53-12.13-26.96-16.66q-7.09-3.4-14.58-6.1c-54.63-19.67-109.49-32.1-168.71-41.42q-47.49-7.48-95.86-14.23-5.71-.8-11.18-2.16-5.58-1.38-11.08-2.78l2.54-.15q.52-.03.86-.43 1.84-2.21 3.78-3.53 9.06-6.21 19.87-8.77c5.46-1.3 11.63-1.58 17.42-2.07q7.23-.62 9.81-6.78z"/><path d="M1265.3 692.52a1.67 1.64 53.8 0 1 .14-.97q.54-1.15 1.78-.69 20.38 7.63 41.35 15.63 3.39 1.29.46 3.42-1.57 1.15-3.07 1.63-4.39 1.43-8.25.06-14.05-4.99-24.41-9.18-6.97-2.82-8-9.9z"/></g><path fill="#393a3a" d="M1102.29 128.74q-.3 2.41-2.8 1.83c-6.48-1.5-11.78-4.85-17.5-7.96-4.57-2.47-9.81-4.37-14.37-6.81q-2.41-1.3-4.17-2c-1.81-.72-2.84-2.08-3.95-3.6q.48-1.52 2.02-1.02c1.46.48 2.63 1.74 4 2.35q15.97 7.04 20.93 9.75 9.85 5.4 15.84 7.46zM618.43 359.66q33.03-1.97 69.1-2.38 32.67-.37 60.43 1.9 36.32 2.97 68.93 6.87 3.94.47 7.88 1.34a2.02 2.02 0 0 1 1.56 2.27q-3.04 20.36-5.6 40.59c-.42 3.37-.39 6.73-.9 10.1q-2.41 15.82-2.57 29.58-.15 12.13 3.27 24.46c1.87 6.71 3.55 13.64 4.42 20.57a1.59 1.59 0 0 1-1.21 1.75q-1.57.37-3.24.29-33.75-1.63-67.5.09-34.1 1.73-70.04 4.09-27.69 1.82-58.95 5.81-24.29 3.11-54.54 6.02c-1.34.13-2.69.39-3.96-.12a1.94 1.93 24.8 0 1-1-2.7q4.15-7.96 4.19-18.27.14-31.92-.63-56.57c-.41-13.1-1.76-27.7-4.38-40.55q-2.25-11.04-5.46-22.31c-1.77-6.2 2.37-7.42 7.5-8.16q19.29-2.79 39.08-3.88 6.77-.38 13.62-.79z"/><path fill="#1c0a12" d="M392.02 248.87q.11.65.52 1 .32.29.99.21 22.56-2.56 45.24 1.12 28.29 7.28 56.02 14.21c9.59 2.4 16.08 7.04 23.87 14.22q21.84 20.13 32.31 47.65 4.61 12.1 8.17 25 .58 2.1 2.4 3.48.42.32.96.32c2.36-.03 4.52-.58 6.85-.9q45.28-6.27 92.46-6.81c17.73-.19 36.04.43 53.44.79q41.54.85 86.42 5.17c7.45.71 14.78 1.81 22.09 2.26 3.28.21 4.52-1.97 5.19-4.75 4.74-19.63 11.78-40.58 23.14-57q9.42-13.61 21.98-24.93 5.29-4.76 12.5-8.3 4.2-2.06 14.06-4.7 25.17-6.74 48.82-11.96 11.41-2.51 19.74-2.85 14.9-.61 27.29 1.26 15.67 2.37 39.41 7.4 15.19 3.79 30.6 10.24 10.51 4.39 18.92 11.44 14.82 12.43 29.53 24.66 5.12 4.26 10.01 8.7c4.66 4.23 7.99 8.53 11.17 14.53q6.09 11.44 12.73 23.58.24.44 1.06 1.06.23.54.23 1.36 0 .78.21 1.33 4.15 10.98 7.95 22.06 1.43 4.15 5.39 4.13-.29 6.47-2.43 13.42-1.02 3.3-2 6.66-.11.37-.43.58-.39.26-.87.08a.66.65-69.4 0 0-.85.39l-.18.51q-1.05-2.52-1.23-3.23-2.66-10.58-5.97-21.5c-7.16-23.68-22.77-44.25-40.42-61.39-10.65-10.34-21.15-19.99-33.71-27.72q-7.53-4.63-17.46-8.47-20.49-7.92-40.6-11.65-15.57-2.88-32.33-4.6c-14.49-1.48-28.14-1.35-42.63 1.14q-26.24 4.51-50.24 15.5-1.14.52-1.33.8-25.52 17.77-35.92 44.48-14.99 38.48-24.83 86.15-2.34 11.38-2.85 22.8-.75 16.98-.5 34.37c.03 2.05.37 4.29.71 6.33q2.33 14.07 3.63 26.65.17 1.6 1.78 1.51 14.99-.91 30.91.19.88.06.97-.83 1.38-14.59 2.61-28.22c.84-9.39 2.23-20.16 2.99-28.12q2.39-25.12 7.77-43.42 5.46-18.58 9.49-30.52 8.24-24.45 26.47-43.37c9.39-6.88 19.3-13.12 29.96-17.81 7.43-3.26 15.25-5.25 23.12-6.81q12.65-2.52 23.97-3.75c29.27-3.17 58.98 10.51 74.72 34.76 11.38 17.53 19.22 36.68 22.73 57.15 2.14 12.48 4.83 24.35 2.87 36.85q-1.51 9.55-4.11 22.29-1.49 7.27-3.59 12.69-2.47 6.38-7.97 17.13-6.2 12.14-13.95 34.47-.45 1.32-.15 2.69.12.52.64.59l72.61 10.56q2.95 3.77 6.09 4.69 5.41 1.58 8.33-3.8 4.63-8.56 4.95-11.58.62-6.05 1.09-11.74c.29-3.44 1.74-7.42 3.69-10.34q2.35-3.52 3.3-7.53.53-2.26 2.73-2.87.5-.13.9.19.99.81.48 2.31c-.46 3.48-1.28 7.13-1.64 10.44q-1.47 13.29-3.04 27.37-2.98 3.35-3.57 8.17c-.3 2.37.9 3.79 3.08 4.35q11.74 2.99 22.56 8.84 1.45.79 3.55 2.58.1.09.08.22l-.07.34q-.07.4.33.48 2.89.59 5.31 2.19 2.79 1.85-.45 1.01-2.67-.69-5.23 1.46L1061.4 528.1q-12.69-1.87-24.4-3.15-12.12-1.32-24.24-2.54-10.15-1.01-19.78-2.37c-18.26-2.56-36.57-4.56-54.94-4.95q-80.24-1.73-159.63-.93c-8.68.08-17.75.58-26.59.81q-10.23.26-19.65.86-20.45 1.31-39.85 2.44-38.26 2.23-93.62 7.87-10.04 1.02-19.86 2.3-77 9.98-131.07 16.77-53.8 6.76-114.03 14.19-17.93 2.21-46.84 4.28-1.27.09-2.76.51-1.45.4-2.77.64l-33.95.9q1.94-1.03 1.47-2.5-.72-2.26-3.42-2.41-4.74-.27-8.68-1.23-5.26-1.29-.54-3.93c1.74-.98 4.32-1.46 6.44-1.59l11.3-.68q6.19-.37 8.72-4.76 11.77.1 16.05.58 28.02 3.17 56.07-.75 1.61-.23 2.91-.9.44-.22.59-.68.76-2.31-.26-4.89-11.24-28.27-19.84-52.64-2.23-6.32-8.48-17.48c-2.73-4.88-5.06-10.27-6.23-15.71q-2.34-10.91-4.19-22.07-2.76-16.7 0-32.37 6.05-34.32 21.07-60.79 10.3-18.14 27.19-28.3c15.14-9.11 32.51-14.32 50.09-12.15 12.49 1.54 26.17 4.61 38.55 8.15q6.29 1.8 11.21 4.19 12.74 6.18 27.61 15.76 17.96 18.8 26.46 43.38 6.83 19.75 11.84 39.17 3.12 12.07 4.41 22.37 2.63 20.95 5.05 44.76 2.02 19.92 1.51 38.29-.08 2.73 1.28 4.66.31.44.85.47 1.23.06 2.45-.1 11.3-1.47 20.83-2.95 6.75-1.05 7.6-7.23 2.45-17.75 4.54-34.89c1.78-14.66 1.15-29.92.2-45.06q-.59-9.42-2.67-19.99-8.12-41.06-24.41-84.26c-6.94-18.41-18.29-33.07-34.82-44.29q-6.44-5.89-14.91-8.44-15.96-4.8-37.76-9.44-18.03-3.84-39.48-1.46-15.87 1.77-31.4 3.15-.19-2.03-.3-4.11-.29-5.55-.17-11.11.11-4.63 1.12-9.11 1.28-5.71 1.3-5.82 1.7-8.91 3.7-18.81.43-2.15 1.67-3.53a1.46 1.46 0 0 1 1.97-.19c3.46 2.58 4.39 6.99 3.8 11.04q-.64 4.45 1.54 8.88c1.13 2.31.13 4.93-.36 7.27q-.74 3.56 1.13 7.64zm507.57 124.55q-10.12 26.42-14.48 48.42-7.31 36.83-8.47 74.3a1.16 1.15-88.5 0 0 1.12 1.19q25.37.71 51.83 2.06c10.46.53 21.46 1.56 31.65 2.63q39.85 4.18 77.27 8.24 4.23.46 8.05.73c1.63.12 2.55-.44 3.04-1.96q9.56-29.71 23.63-56.64c3.17-6.08 4.54-10.79 5.06-17.18q1.28-15.71 1.78-27.68c1.11-26.67-11.19-52.01-26-73.88-5.68-8.4-12.3-14.79-21.21-19.24q-17.15-8.56-35.16-8.56-15.46.01-29.23 2.35-9.69 1.66-17.96 6.36c-16.86 9.6-33.8 22.93-42.57 39.83q-4.05 7.81-8.35 19.03zm-580.94-2.83q-10.41 24.27-8.53 51.31.85 12.28 1.81 24.8.31 4.07 2.05 7.45 18.6 36.22 30.48 75.75c1.59 5.27 3.81 9.16 7.88 12.52q1.72 1.43 4.25 1.06 26.14-3.9 50.58-7.41c10.14-1.46 20.09-1.66 30.82-2.9 12.74-1.48 26.75-5.03 39.46-7.25q14.17-2.47 30.36-4.1c1.8-.19 5.15-1.25 5.8-3.29.8-2.53.41-6.22.23-8.77-.43-6.38-1.23-12.61-1.45-19.12q-.62-19.05-3.61-39.74-4.98-34.48-16.74-66.1c-5.31-14.29-10.95-29.53-22.13-40.13q-16.5-15.63-33.95-24.93c-3.73-1.99-7.84-3.52-12.04-4.17q-10.93-1.69-22.19-2.58-20.03-1.58-38.46 5.58c-10.41 4.05-18.56 9.83-25.23 18.32q-10.88 13.85-19.39 33.7zm286.16-10.14q-19.79 1.09-39.08 3.88c-5.13.74-9.27 1.96-7.5 8.16q3.21 11.27 5.46 22.31c2.62 12.85 3.97 27.45 4.38 40.55q.77 24.65.63 56.57-.04 10.31-4.19 18.27a1.94 1.93 24.8 0 0 1 2.7c1.27.51 2.62.25 3.96.12q30.25-2.91 54.54-6.02 31.26-3.99 58.95-5.81 35.94-2.36 70.04-4.09 33.75-1.72 67.5-.09 1.67.08 3.24-.29a1.59 1.59 0 0 0 1.21-1.75c-.87-6.93-2.55-13.86-4.42-20.57q-3.42-12.33-3.27-24.46.16-13.76 2.57-29.58c.51-3.37.48-6.73.9-10.1q2.56-20.23 5.6-40.59a2.02 2.02 0 0 0-1.56-2.27q-3.94-.87-7.88-1.34-32.61-3.9-68.93-6.87-27.76-2.27-60.43-1.9-36.07.41-69.1 2.38-6.85.41-13.62.79z"/><path d="M1059.5 110.2c1.11 1.52 2.14 2.88 3.95 3.6q1.76.7 4.17 2c4.56 2.44 9.8 4.34 14.37 6.81 5.72 3.11 11.02 6.46 17.5 7.96q2.5.58 2.8-1.83.68 1.64.7 3.04a.78.78 0 0 0 .47.7q1.05.45 2.01 1.01 18.59 10.75 37.54 25.04 8.64 6.52 14.66 13.14c7.66 8.44 14.77 17.15 20.71 26.84q4.76 7.75 6.75 17.21 1.17 5.55.79 18.12-.37 11.97-.88 23.66-1.66 37.36-4.24 84.63c-.37 6.73-1.37 13.01-2.27 19.55q-.53 3.86-.56 7.9c-.23 30.67-3.82 61.03-10.7 91.81-1.12 4.99-1.07 9.76-1.06 14.86.01 1.54.94 2.58 2.16 3.36a1.06 1.06 0 0 1 0 1.79l-1.72 1.11q.51-1.5-.48-2.31-.4-.32-.9-.19-2.2.61-2.73 2.87-.95 4.01-3.3 7.53c-1.95 2.92-3.4 6.9-3.69 10.34q-.47 5.69-1.09 11.74-.32 3.02-4.95 11.58-2.92 5.38-8.33 3.8-3.14-.92-6.09-4.69 1.61-8.74 3.19-12.68 14.11-35.1 22.42-78.26 2.33-12.11.52-21.24-.76-3.85-4.29-15.51l.18-.51a.66.65-69.4 0 1 .85-.39q.48.18.87-.08.32-.21.43-.58.98-3.36 2-6.66 2.14-6.95 2.43-13.42c.13-2.12.4-4.15.32-6.18q-.49-11.57 1.24-22.09c1.68-10.23 1.8-19.6 1.74-29.57-.06-8.74 1.06-17.35 1.66-26 .52-7.41 2.29-14.52 2.58-21.71.21-5.26 1.32-10.26 1.65-15.43q1.12-17.99.67-36.68c-.08-3.21-2.62-5.9-4.31-8.28q-.98-1.38-2.89-4.43-5.61-8.99-13.39-15.26-10.03-8.08-16.12-14.35c-6.34-6.51-11.64-12.72-20.21-16.72q-18.68-8.72-40.1-20.1c-13.02-6.91-26.77-13.21-40.09-18.97q-1.61-.7-6.21-1.79-3.19-.75-6.47-1.03-9.77-.83-19.28-4.21c-5.21-1.85-10.86-3.02-16.32-4.31-2.76-.66-4.89-2.55-7.72-3.28-2.69-.69-4.88-1.34-7.29-2.84q-6.55-4.07-12.44-4.63-9.15-.88-17.44-1.84-2.4-.28-4.59.57-.46.19-.44.69.09 2.13-.64 2.37-18.15-5.26-23.1-6.34-45.89-10.04-92.49-16.02-42-5.38-84.26-7.94-25.95-1.58-50.28 1.6-22.95-.43-42.21.51-44.68 2.18-90.26 9.96-30.34 5.18-60.89 13.44c-19.83 5.36-39.41 13.26-57.07 23.02q-14.01 7.74-23.45 17.06c-6.9 6.82-9.9 13.86-10.87 24.09q-.82 8.73-1.94 19.57-1.1 10.64-2.18 19.53-3.17 25.94-6.58 52.61-1.87-4.08-1.13-7.64c.49-2.34 1.49-4.96.36-7.27q-2.18-4.43-1.54-8.88c.59-4.05-.34-8.46-3.8-11.04a1.46 1.46 0 0 0-1.97.19q-1.24 1.38-1.67 3.53-2 9.9-3.7 18.81-.02.11-1.3 5.82-1.01 4.48-1.12 9.11-.12 5.56.17 11.11.11 2.08.3 4.11-10.76 2.4-21.12 5.05-19.31 4.96-35.93 14.98-19.96 12.04-40.96 31.64-27.21 25.39-39.67 63.25-6.43 19.53-8.64 43.58c-.57 6.16-.31 12.3.51 18.51q2.58 19.35 7.38 36.87 9.59 34.99 24.52 68.03-2.53 4.39-8.72 4.76l-11.3.68c-2.12.13-4.7.61-6.44 1.59q-4.72 2.64.54 3.93 3.94.96 8.68 1.23 2.7.15 3.42 2.41.47 1.47-1.47 2.5-23.6 1.74-47.35 2.35c-8.51.22-16.33 1.3-24.24 2.96q-16.69 3.5-33.97 9.26c-16.52 5.51-34.59 15.24-35.54 34.89q-.2 4.08 1.06 7.08 4.3 10.23 12.91 20.88 45.84 33.41 100.5 51.08 7.7 2.48 15.47 4.91c2.15.67 3.41.05 4.46-1.79q.91-.08 1.16.52.18.44.63.56.99.28 1.94.45 1.05.18.93 1.22-.92 2.71-.87 5.65.03 1.5 2.5 2.54l-9.27 7.9q-1.79-2.88-4.36-3.59-31.24-8.6-58.72-22.47c-13.16-6.64-25.98-14.92-38.98-21.91q-11.42-6.14-17.99-10.41c-15.81-10.28-23.49-28.3-22.87-46.92q.24-6.89 6.29-15.16c6.09-8.32 13.81-16.13 23.05-21.21 11.71-6.43 21.19-10.79 33.38-13.4 12.79-2.75 25.55-6.83 37.99-10q21.94-5.58 44.87-7.89c2.8-.29 5.01-1.18 3.63-4.49q-19.17-46.06-26.73-95.69c-.72-4.75-.67-8.33.6-12.7 1.04-3.61 1.54-6.95 1.57-10.85.19-30.66 14.8-63.71 32.24-88.95q8.56-12.37 22.08-24.14 12.26-10.66 23.5-20.01 20.87-17.36 49.65-27.03 6.05-2.04 12.64-4.02 4.98-1.49 5.72-6.59 4.12-28.44 8.97-52 2.68-12.97 5.08-25.22c1.64-8.35 2.01-16.96 3.51-25.47q2.08-11.76 8.97-21.15 13.69-18.65 34.24-28.65c14.04-6.83 27.03-13 42.11-17.78q23.68-7.49 47.67-13.51 9.9-2.49 18.49-3.72 9.42-1.35 18.77-2.8 8.71-1.35 19.83-2.56 10.98-1.2 21.73-3.58c7.97-1.76 17.74-1.15 26.25-1.82q9.87-.78 20.32-.83 42.78-.21 85.48.62c20.97.41 42.2 1.16 63.23 3.15q23.03 2.19 46.03 3.79 4.32.3 15.29 2.91c10.54 2.52 20.11 2.74 30.31 3.39 19.45 1.23 40.25 8.47 60.4 12.55 15.89 3.22 32.17 6.55 47.63 11.63q32.13 10.55 65.74 22.64c.93.34 1.54.99 2.42 1.17a.84.84 0 0 0 .82-.27l.91-1.05z"/><path d="M568.54 94.17q.63-.16 1 .05.56.31 0 .63-2.54 1.4-5.29 2.15-7.63 2.07-15.64 3.77c-2.74.57-5.19 1.54-7.84 2.15q-1.51.35-3.05.87-23.21 7.8-40.8 14.27-10.02 3.68-20.99 9.89c-9.31 5.26-13.36 12.66-16.16 22.4q-1.93 6.69-5.05 13.13 1.62-6.27 3.32-12.32 2.21-7.86 4.56-11.84 6.13-10.39 17.9-15.85 43.02-19.94 88.04-29.3zm593.43 426.15q20.9 10.62 43.21 17.96 8.26 2.72 19.26 5.34c28.58 6.8 57.39 13.95 85.31 21.94 2.53.73 5.26 1.75 7.57 2.86q12.08 5.79 23.46 10.41 10.34 4.2 17.9 8.61 26.2 15.28 39.64 41.7 10.21 20.1 3.36 40.25c-5.93 17.44-19.87 31.72-35.81 40.6q-12.96 7.22-25.59 14.56-7.2 4.18-14.5 7.18-25.7 10.55-51.49 19.33c-6.97 2.38-14.03 4.42-20.54 5.46q-9.65 1.54-14.69 2.92-1.87-1.49-4.6-.17-1.13.54-1.35 1.74-.84 4.6 1.65 5.93-.22.16-.48.62-.25.45-.14.95 3.78 17.46 5.49 30.84 2.49 19.35 5 30.9c5.06 23.26 9.84 45.56 9.41 69.28q-.55 31.2.44 45.09 1.29 18.03 1.69 31.4.3 10.27-.85 26.64c-1.02 14.68-1.32 29.73-1.64 44.62-.28 13.62.06 27.17-.82 40.69q-.98 15.06-4.57 25-2.33 6.45-6.41 14-2.71 5.03-4.1 10.85c-2.7 11.28-6.66 22.1-11.82 32.69-6.59 13.52-14.48 27.41-21.41 41.27q-8.14 16.31-16.65 32.14c-4.61 8.56-10.59 17.35-16.51 25.17q-25.42 33.61-49.97 67.76c-3.86 5.38-7.22 11.48-11.41 16.63q-25.62 31.5-58.22 51.92c-4.56 2.86-9.55 5.14-14.79 6.86-5.48 1.8-11.09 3.75-16.78 5.02q-13.11 2.93-25.21 5.57-3.88.84-8.07 1.41 1.18-1.59.93-2.27-.41-1.08-.55-2.2-.06-.49-.45-.8-.74-.59-1.12-1.51 5.58-1.06 11.16-1.95 6.01-.95 10.3-2.21 9.26-2.73 21.26-6.91 16.75-5.84 28.07-16.22c20.03-18.37 38.19-38.04 54.66-59.28q11.68-15.07 23.35-29.97c7.86-10.03 14.71-20.29 21.38-30.95q15.64-24.99 31.65-52.17 16.84-28.57 33.21-67.58 2.66-6.34 5.18-12.32c8.69-20.56 14.71-42.88 15.05-65.41q.71-46.81 1.7-94.59.21-10.48 0-19.91-1-43.21-3.56-71.27-1.76-19.26-4.69-33.49-3.63-17.68-6.32-33.42-4.22-24.61-5.83-32.71c-1.32-6.65-2.65-14-5.91-20.25q2.29 0 2.95-2.25 1.12-3.78 1.92-7.47.36-1.61 2.26-5.46c.79-1.59 1.98-2.35 3.71-2.66q5.1-.9 9.76-1.16 5.68-.31 9.2-1.18 15.25-3.77 38.02-10.43 3.69-1.08 7.45-2.58c6.04-2.43 11.9-4.83 18.1-7.05q19.75-7.06 37.76-17.83 6.24-3.73 13.06-7.92c9.52-5.86 18.12-12.73 25.24-21.46q5.19-6.35 6.92-14.43c1.27-5.93-2.44-9.13-5.49-13.28q-.04-.07-2.61-4.24-1.63-2.64-4.18-4.48.15-3.16-1.28-5.96-1.49-2.93-3.26-5.73 1.32-1.85 1.78-3.32.68-2.16.98-4.4c.49-3.76-2.8-8.73-5.18-11.23q-4.58-4.82-10.46-9.05c-11.07-7.97-23.5-15.24-37.25-16.96q-5.63-.71-10.31-1.97-2.01-.54-5.41 1.18-33.7-13.97-67.35-22.51-25.76-6.54-41.36-10.85-3.46-.95-6.85-1.38-3.24-.4-6.97-.85 2.56-2.15 5.23-1.46 3.24.84.45-1.01-2.42-1.6-5.31-2.19-.4-.08-.33-.48l.07-.34q.02-.13-.08-.22-2.1-1.79-3.55-2.58-10.82-5.85-22.56-8.84c-2.18-.56-3.38-1.98-3.08-4.35q.59-4.82 3.57-8.17zm-916.73 392.2q1.32 9.6 2.77 19.98 1.8 12.85 1.16 29.5c-.54 14.18-1.21 28.63-2.14 42.73-.69 10.54-.95 20.99-1.58 31.69q-.83 14.21-1.7 27.84c-.5 7.97 2.57 8.69 9.51 9.36q12.61 1.22 25.28 1.82 1.32.19 5.59 1.43 4.77 1.4 14.36 1.94 1.4.69 1.84 1.94 2.08 5.97 3.27 14.04-13.25-2.35-25.88-5.7-3.06-.81-5.79-1.07-26.45-2.58-56.19.52-7.27.76-11.7 6.53-4.6 5.98-8.55 11.2-1.43 1.89-2.49 3.92-.93 1.78-.56 3.82 3.27 17.67 19.21 24.68 21.97 9.67 45.49 16.1 13.05 3.56 26.36 3.92 20.57.55 39.68 1.03.16 0 17.12.93 10.08.55 20.19-.29 1.94-.04 2.69 1.25.21.37-.01.74-.14.23.08.51a.65.63-18.2 0 0 .51.25h1.18q.64 0 .73-.64.28-1.94 2.29-1.65.51.07.78.51 2.32 3.79-2.69 6.37-4.37-.03-20.3.76-7.93.39-24.51.05-10.81-.23-20.06-.24-14.92-.01-31.12.11-1.35.01-.9 1.28 8.91 25.2 30.81 38.61 15.57 9.53 30.59 18.92 2.95 1.85 6.18 2.13 4.32.37 17.5.67.93.25.95 1.02.01.15-.08.27-.09.13-.23.17-.37.1-.49.47-.94 3.06-1.46 6.2c-.19 1.15.24 2.03.38 3.17q.06.48-.12.93l-1.06 2.67q-6.43-1.23-9.64-2.58c-8.01-3.37-16.65-6.74-23.8-10.76q-7.09-3.99-14.51-9.49a1.03 1.03 0 0 0-1.63.94q.2 1.76 1.56 3.23c16.3 17.53 31.19 35.69 46.36 54.7q8.03 10.06 12.79 15.37c15.96 17.8 35.04 35.11 53.73 50.14q7.58 6.1 18.58 12.14 17.18 9.42 34.66 18.95c25.7 14.02 52.96 24.58 81.7 31.93q4.12 1.05 19.63 4.12 27.29 5.39 53.94 15.15 9.76 3.57 19.98 3.19 1.98.2 2.67 1.58.22.43.7.53 3.56.75 4.89 2.95 2.3 3.82 4.91 5.45l-119.82-17.87a10.66 9.94 57.9 0 1-2.25-.6c-23.63-9.22-47.34-18.52-69.36-30.75q-13.47-7.5-35.81-21.35-27.97-17.35-49.73-36.77-7.27-6.48-15.09-13.7-31.06-28.7-53.32-57.69-18.23-23.74-28.09-35.94-6.76-8.35-11.23-15.3c-7.51-11.68-13.1-23.65-18.75-37.15-4.84-11.58-20.05-15.86-30.97-18.67-11.07-2.86-21.85-9.29-30.67-16.44q-11.36-9.22-15.25-25.36-3.57-14.83 7.53-27.65c9.02-10.42 21.63-15.87 35.34-18.86q3.55-.77 6.89-1.75a2.02 2.02 0 0 0 1.45-1.91q.89-73.82 1.91-147.69.04-3.02-.97-5.08 3.49-.31 6.04-.85 2.85-.6 8.74 1.45z"/><path fill="#dfdfdf" d="M687.47 69.08q-23.88 8.41-42.76 10.57-23.1 2.64-28.96 3.59-17.98 2.89-47.21 10.93-45.02 9.36-88.04 29.3-11.77 5.46-17.9 15.85-2.35 3.98-4.56 11.84-1.7 6.05-3.32 12.32-2.61 11.83-4.79 24.27-5.52 31.6-11.16 63.45-22.68-3.68-45.24-1.12-.67.08-.99-.21-.41-.35-.52-1 3.41-26.67 6.58-52.61 1.08-8.89 2.18-19.53 1.12-10.84 1.94-19.57c.97-10.23 3.97-17.27 10.87-24.09q9.44-9.32 23.45-17.06c17.66-9.76 37.24-17.66 57.07-23.02q30.55-8.26 60.89-13.44 45.58-7.78 90.26-9.96 19.26-.94 42.21-.51zm-406.1 495.75q4.24.73 2.2 5.6c-5.69.95-11.33 1.18-16.88 2.16q-21.79 3.83-44.88 6.43-32.02 3.6-65.75 12.15-10.45 2.65-18.27 5.6c-11.07 4.18-21.81 13.01-21.23 25.43.19 4.16 1.1 7.52 2.46 12.02q1.34 4.42 1.27 8.93-8.61-10.65-12.91-20.88-1.26-3-1.06-7.08c.95-19.65 19.02-29.38 35.54-34.89q17.28-5.76 33.97-9.26c7.91-1.66 15.73-2.74 24.24-2.96q23.75-.61 47.35-2.35l33.95-.9z"/></svg>